<svg width="713" height="696" viewBox="0 0 713 696" fill="none" xmlns="http://www.w3.org/2000/svg">
<path d="M602.389 434.189C602.389 445.236 593.431 454.194 582.379 454.194C571.327 454.194 553.207 441.699 553.207 430.653C553.207 419.601 571.327 414.179 582.379 414.179C593.431 414.179 602.389 423.137 602.389 434.189ZM664.098 267.986C642.353 280.538 606.29 289.903 599.723 278.533C593.16 267.168 618.582 239.371 640.327 226.824C662.072 214.272 685.02 213.309 691.582 224.679C698.15 236.043 685.843 255.434 664.098 267.986ZM225.806 24.2984C231.78 40.5432 233.905 66.137 225.41 69.2568C216.915 72.3818 201.02 51.8505 195.046 35.6057C189.072 19.3661 191.113 3.66823 199.608 0.543226C208.103 -2.57657 219.832 8.05885 225.806 24.2984ZM516.655 390.319C575.884 443.293 501.952 430.564 504.77 450.97C525.999 604.455 759.733 615.002 703.952 677.663C648.171 740.324 587.613 526.663 424.296 533.892C262.056 535.012 317.759 725.59 229.874 691.012C158.895 651.981 294.895 583.543 215.77 475.538C143.342 377.726 2.38935 485.392 0.0247719 405.783C-2.34502 326.173 165.947 454.653 232.759 285.449C296.139 192.392 212.566 139.949 252.967 129.564C293.369 119.173 267.728 214.356 365.436 234.496C401.957 242.022 427.738 159.564 462.181 182.423C496.624 205.278 455.91 247.366 472.363 280.137C493.056 321.345 552.686 261.522 568.04 297.949C583.395 334.371 498.79 359.949 516.655 390.319C591.744 390.319 535.139 390.319 516.655 390.319Z" fill="#0C94C2"/>
<path d="M320.744 476.757C357.212 476.757 387.03 505.267 389.155 541.179L361.874 538.439L343.228 496.496C340.556 490.465 336.238 485.528 330.957 482.106C327.665 479.981 323.968 478.403 315.327 476.824V476.621C317.113 476.689 318.895 476.757 320.744 476.757Z" fill="#FCD770"/>
<path d="M343.228 496.496L361.874 538.439L309.16 561.877C297.436 551.871 288.046 538.851 282.014 523.84C280.436 519.866 279.613 515.684 279.613 511.507V509.996C279.613 491.632 294.488 476.757 312.863 476.757C313.681 476.757 314.504 476.757 315.327 476.825C323.968 478.403 327.665 479.981 330.957 482.106C336.238 485.528 340.556 490.465 343.228 496.496Z" fill="#FCD770"/>
<path d="M427.061 265.189L423.566 262.585C427.952 254.153 430.421 244.627 430.421 234.689V230.028L389.29 236.882L382.436 202.616L341.306 223.173L334.452 188.908L286.468 216.319V195.762C273.514 200.08 261.931 207.272 252.608 216.731C243.145 226.054 235.952 237.637 231.629 250.59L225.665 252.986C217.098 256.413 210.04 262.241 205.103 269.575C200.165 276.84 197.358 285.543 197.358 294.793C197.358 301.788 199.004 308.71 202.087 314.944L208.738 328.173C211.478 326.731 214.629 325.981 217.921 325.981H224.775C224.775 303.293 243.218 284.856 265.905 284.856H375.582C382.504 284.856 389.087 286.569 394.775 289.585C407.801 296.507 416.712 310.215 416.712 325.981H423.566C427.129 325.981 430.488 326.871 433.369 328.444L436.931 323.033C441.665 316.043 444.129 307.746 444.129 299.319C444.129 285.887 437.827 273.272 427.061 265.189Z" fill="#B27946"/>
<path d="M608.645 257.444V373.955C608.645 377.725 605.561 380.809 601.79 380.809H581.092C581.16 380.189 581.228 379.574 581.228 379.028C581.228 372.444 575.879 367.1 569.301 367.1H562.65C557.374 367.1 552.78 370.528 551.202 375.528L549.629 380.809H478.405C474.634 380.809 471.551 377.725 471.551 373.955V257.444H608.645Z" fill="#E6E9ED"/>
<path d="M478.405 216.319H601.79C605.561 216.319 608.645 219.408 608.645 223.173V257.444H471.551V223.173C471.551 219.408 474.634 216.319 478.405 216.319Z" fill="#B4DD7F"/>
<path d="M549.968 483.611L535.848 530.012C534.27 535.012 529.681 538.439 524.4 538.439H517.754C511.171 538.439 505.827 533.095 505.827 526.512C505.827 525.35 506.03 524.184 506.374 523.017L549.629 380.809L551.202 375.528C552.78 370.528 557.374 367.1 562.65 367.1H569.301C575.879 367.1 581.228 372.444 581.228 379.028C581.228 379.574 581.16 380.189 581.093 380.809C580.952 381.356 580.816 381.903 580.681 382.522L568.066 423.918V423.986L549.968 483.611Z" fill="#CCD1D9"/>
<path d="M608.645 572.71V593.267C608.645 597.038 605.561 600.121 601.79 600.121H533.244C529.473 600.121 526.389 597.038 526.389 593.267V579.559C526.389 575.793 529.473 572.71 533.244 572.71H608.645Z" fill="#AAB2BD"/>
<path d="M498.967 579.559V593.267C498.967 597.038 495.884 600.121 492.113 600.121H396.145C392.379 600.121 389.29 597.038 389.29 593.267V579.559C389.29 575.793 392.379 572.71 396.145 572.71H492.113C495.884 572.71 498.967 575.793 498.967 579.559Z" fill="#AAB2BD"/>
<path d="M430.421 572.71H396.145C392.379 572.71 389.29 575.793 389.29 579.559V586.413H374.488C349.947 586.413 326.915 577.434 309.16 561.876L361.874 538.439L389.155 541.179L403.139 542.554C418.629 544.126 430.421 557.147 430.421 572.71Z" fill="#F0D0B4"/>
<path d="M433.369 328.444C439.811 331.939 444.129 338.726 444.129 346.538C444.129 352.226 441.801 357.366 438.098 361.069C434.395 364.772 429.254 367.101 423.566 367.101H416.712V325.981H423.566C427.129 325.981 430.488 326.871 433.369 328.444Z" fill="#F0D0B4"/>
<path d="M334.452 339.684C334.452 332.147 340.624 325.981 348.165 325.981H403.004C410.54 325.981 416.712 332.147 416.712 339.684V325.981C416.712 310.215 407.801 296.507 394.775 289.585C389.087 286.569 382.504 284.856 375.582 284.856H265.905C243.217 284.856 224.775 303.293 224.775 325.981V339.684C224.775 332.147 230.947 325.981 238.488 325.981H293.327C300.863 325.981 307.035 332.147 307.035 339.684V380.809C307.035 388.345 300.863 394.512 293.327 394.512H238.488C231.426 394.512 225.53 389.101 224.842 382.179C225.53 432.689 265.29 473.809 315.327 476.621C317.113 476.689 318.895 476.757 320.744 476.757C347.202 476.757 371.197 465.996 388.608 448.658C405.676 431.59 416.369 408.153 416.645 382.179C415.957 389.101 410.061 394.512 403.004 394.512H348.165C340.624 394.512 334.452 388.345 334.452 380.809V339.684Z" fill="#F0D0B4"/>
<path d="M224.775 325.981V367.101H217.921C212.233 367.101 207.093 364.772 203.389 361.069C199.686 357.366 197.358 352.226 197.358 346.538C197.358 338.455 201.952 331.528 208.738 328.173C211.478 326.731 214.629 325.981 217.921 325.981H224.775Z" fill="#F0D0B4"/>
<path d="M416.712 367.101V380.809C416.712 381.288 416.712 381.767 416.645 382.179C415.957 389.101 410.061 394.512 403.004 394.512H348.165C340.624 394.512 334.452 388.345 334.452 380.809V339.684C334.452 332.147 340.624 325.981 348.165 325.981H403.004C410.54 325.981 416.712 332.147 416.712 339.684V367.101Z" fill="#69D6F4"/>
<path d="M307.035 353.392V380.809C307.035 388.345 300.863 394.512 293.327 394.512H238.488C231.426 394.512 225.53 389.101 224.842 382.179C224.775 381.767 224.775 381.288 224.775 380.809V339.684C224.775 332.147 230.947 325.981 238.488 325.981H293.327C300.863 325.981 307.035 332.147 307.035 339.684V353.392Z" fill="#69D6F4"/>
<path d="M361.155 424.991L348.889 418.861C345.832 424.981 339.676 428.778 332.837 428.778H300.181V442.481H332.837C344.895 442.491 355.744 435.778 361.155 424.991Z" fill="black"/>
<path d="M252.197 368.715C254.806 363.486 260.056 360.246 265.905 360.246C271.754 360.246 277.004 363.496 279.613 368.715L280.332 370.163L292.598 364.028L291.879 362.585C286.931 352.689 276.978 346.533 265.905 346.533C254.832 346.533 244.879 352.679 239.931 362.585L239.212 364.028L251.478 370.163L252.197 368.715Z" fill="black"/>
<path d="M375.582 346.538C364.514 346.538 354.561 352.689 349.608 362.59L348.889 364.038L361.155 370.168L361.874 368.715C364.483 363.486 369.733 360.246 375.582 360.246C381.431 360.246 386.681 363.496 389.29 368.715L390.014 370.163L402.275 364.028L401.556 362.585C396.608 352.689 386.655 346.538 375.582 346.538Z" fill="black"/>
<mask id="mask0_253_428" style="mask-type:luminance" maskUnits="userSpaceOnUse" x="190" y="177" width="317" height="432">
<path d="M190.504 177.59H506.301V608.257H190.504V177.59Z" fill="white"/>
</mask>
<g mask="url(#mask0_253_428)">
<path d="M492.113 565.856H436.639C433.676 549.877 420.566 537.423 403.827 535.741L395.379 534.897C391.905 509.752 376.082 488.715 354.353 477.856C394.572 463.892 423.566 425.72 423.566 380.809V373.955C438.686 373.955 450.988 361.658 450.988 346.538C450.988 338.83 447.764 331.882 442.624 326.897L442.665 326.83C448.108 318.653 450.988 309.153 450.988 299.345C450.988 284.194 443.879 269.736 431.978 260.403C435.337 252.377 437.275 243.679 437.275 234.653V221.934L394.712 229.028L387.4 192.47L346.27 213.033L339.306 178.236L293.327 204.507V186.246L284.306 189.257C257.53 198.173 236.025 219.022 226.202 245.382L223.129 246.606C203.306 254.528 190.504 273.444 190.504 294.788C190.504 302.798 192.395 310.819 195.978 317.996L199.978 325.981C194.217 331.002 190.504 338.309 190.504 346.538C190.504 361.658 202.801 373.955 217.921 373.955V380.809C217.921 426.184 247.509 464.715 288.374 478.314C278.895 485.647 272.759 497.101 272.759 509.986V511.476C272.759 516.585 273.728 521.595 275.624 526.366C291.884 567.007 330.676 593.267 374.467 593.267H382.436C382.436 600.83 388.587 606.976 396.145 606.976H492.113C499.676 606.976 505.827 600.83 505.827 593.267V579.559C505.827 572.002 499.676 565.856 492.113 565.856ZM381.243 533.486L366.52 532.012L349.499 493.705C348.874 492.309 348.124 491.007 347.353 489.705C364.613 497.991 377.467 514.054 381.243 533.486ZM403.004 387.663H348.165C344.379 387.663 341.306 384.59 341.306 380.809V339.684C341.306 335.903 344.379 332.83 348.165 332.83H403.004C406.785 332.83 409.858 335.903 409.858 339.684V380.809C409.858 384.585 406.785 387.663 403.004 387.663ZM327.598 339.684V346.538H313.889V339.684C313.889 328.351 304.66 319.127 293.327 319.127H238.488C236.285 319.127 234.202 319.564 232.212 320.21C234.978 304.069 248.983 291.71 265.905 291.71H375.582C392.499 291.71 406.509 304.059 409.275 320.21C407.285 319.564 405.202 319.127 403.004 319.127H348.165C336.827 319.127 327.598 328.345 327.598 339.684ZM231.629 380.809V339.684C231.629 335.903 234.702 332.83 238.488 332.83H293.327C297.108 332.83 300.181 335.903 300.181 339.684V380.809C300.181 384.59 297.108 387.663 293.327 387.663H238.488C234.702 387.663 231.629 384.585 231.629 380.809ZM423.566 360.246V332.83C431.129 332.83 437.275 338.981 437.275 346.538C437.275 354.101 431.129 360.246 423.566 360.246ZM437.275 299.345C437.275 306.439 435.191 313.314 431.259 319.22L430.634 320.158C428.363 319.548 426.03 319.127 423.566 319.127H423.02C421.374 307.705 415.712 297.601 407.493 290.252C414.551 285.522 420.556 279.543 425.301 272.679C432.827 279.423 437.275 289.153 437.275 299.345ZM279.613 205.897V228.132L329.603 199.569L336.348 233.309L377.473 212.752L383.868 244.731L423.452 238.137C422.228 256.778 411.207 273.397 394.577 281.939C388.743 279.413 382.327 277.996 375.582 277.996H265.905C263.405 277.996 260.962 278.252 258.561 278.621L239.306 249.746C246.613 230.507 261.139 214.705 279.613 205.897ZM208.243 311.861C205.603 306.59 204.212 300.684 204.212 294.788C204.212 279.08 213.639 265.168 228.217 259.335L229.014 259.012L244.936 282.892C230.936 289.731 220.775 303.147 218.467 319.116H217.921C215.952 319.116 214.04 319.345 212.191 319.741L208.243 311.861ZM204.212 346.538C204.212 338.981 210.358 332.83 217.921 332.83V360.246C210.358 360.246 204.212 354.09 204.212 346.538ZM233.983 400.835C235.436 401.163 236.931 401.361 238.488 401.361H293.327C304.66 401.361 313.889 392.137 313.889 380.798V360.241H327.598V380.798C327.598 392.137 336.827 401.361 348.165 401.361H403.004C404.551 401.361 406.051 401.158 407.504 400.835C398.374 440.335 362.983 469.903 320.743 469.903C278.504 469.903 243.113 440.335 233.983 400.835ZM288.353 521.283C287.108 518.137 286.467 514.835 286.467 511.476V509.986C286.467 495.439 298.306 483.606 312.853 483.606C323.275 483.606 332.733 489.752 336.967 499.272L352.832 534.95L310.327 553.84C300.983 544.882 293.405 533.897 288.353 521.283ZM382.436 579.559H374.467C355.311 579.559 337.259 573.783 322.233 563.559L363.004 545.444L402.462 549.387C412.113 550.351 419.77 557.028 422.462 565.856H396.145C388.587 565.856 382.436 572.002 382.436 579.559ZM396.145 593.267V579.559H492.113L492.129 593.267H396.145Z" fill="black"/>
</g>
<path d="M411.863 458.205L386.452 483.611L411.863 509.017L421.556 499.324L405.843 483.611L421.556 467.897L411.863 458.205Z" fill="black"/>
<path d="M476.395 509.017L501.806 483.611L476.395 458.205L466.702 467.897L482.421 483.611L466.702 499.324L476.395 509.017Z" fill="black"/>
<path d="M424.061 515.33L451.483 446.793L464.212 451.887L436.79 520.418L424.061 515.33Z" fill="black"/>
<mask id="mask1_253_428" style="mask-type:luminance" maskUnits="userSpaceOnUse" x="463" y="208" width="153" height="401">
<path d="M463.634 208.257H615.504V608.257H463.634V208.257Z" fill="white"/>
</mask>
<g mask="url(#mask1_253_428)">
<path d="M601.79 387.663C609.353 387.663 615.504 381.512 615.504 373.955V223.173C615.504 215.616 609.353 209.47 601.79 209.47H478.405C470.842 209.47 464.697 215.616 464.697 223.173V373.955C464.697 381.512 470.842 387.663 478.405 387.663H540.379L499.78 521.043C499.244 522.809 498.967 524.653 498.967 526.501C498.967 536.861 507.395 545.288 517.759 545.288H524.4C532.723 545.288 539.957 539.939 542.379 531.97L555.014 490.46H579.973L601.264 564.944C601.353 565.246 601.421 565.543 601.483 565.845H533.244C525.681 565.845 519.535 571.996 519.535 579.554V593.262C519.535 600.819 525.681 606.97 533.244 606.97H601.79C609.353 606.97 615.504 600.819 615.504 593.262V568.725C615.504 566.194 615.145 563.668 614.452 561.194L575.244 424.007L586.306 387.653H601.79V387.663ZM601.79 593.267H533.244V579.559H601.79V593.267ZM587.296 373.955C585.061 366.074 577.884 360.246 569.285 360.246H562.65C561.973 360.246 561.322 360.335 560.665 360.403V264.298H601.79V373.955H587.296ZM601.79 223.173V250.59H533.244V236.882H519.535V250.59H505.827V236.882H492.113V250.59H478.405V223.173H601.79ZM478.405 373.955V264.298H546.952V368.767C545.999 370.231 545.207 371.824 544.671 373.569L544.556 373.96H478.405V373.955ZM529.27 527.975C528.603 530.132 526.65 531.58 524.4 531.58H517.759C514.957 531.58 512.681 529.304 512.681 526.501C512.681 526.001 512.754 525.501 512.9 525.022L557.785 377.554C558.447 375.392 560.405 373.944 562.65 373.944H569.296C572.098 373.944 574.374 376.22 574.374 379.028C574.374 379.528 574.296 380.028 574.155 380.507L529.27 527.975ZM576.061 476.757H559.191L567.889 448.179L576.061 476.757Z" fill="black"/>
</g>
<path d="M574.374 278.002H588.082V291.71H574.374V278.002Z" fill="black"/>
<path d="M574.374 305.418H588.082V319.127H574.374V305.418Z" fill="black"/>
<path d="M492.113 278.002H533.243V291.71H492.113V278.002Z" fill="black"/>
<path d="M492.113 305.418H533.243V319.127H492.113V305.418Z" fill="black"/>
<path d="M492.113 332.83H533.243V346.538H492.113V332.83Z" fill="black"/>
<path d="M574.374 332.83H588.082V346.538H574.374V332.83Z" fill="black"/>
</svg>
