<svg xmlns="http://www.w3.org/2000/svg" xmlns:xlink="http://www.w3.org/1999/xlink" width="965" zoomAndPan="magnify" viewBox="0 0 723.75 707.999996" height="944" preserveAspectRatio="xMidYMid meet" version="1.0"><defs><clipPath id="6e78eefb7e"><path d="M 220.152344 210 L 457 210 L 457 533 L 220.152344 533 Z M 220.152344 210 " clip-rule="nonzero"/></clipPath><clipPath id="0396e0a8a8"><path d="M 425 233 L 538.902344 233 L 538.902344 533 L 425 533 Z M 425 233 " clip-rule="nonzero"/></clipPath></defs><path fill="#0c94c2" d="M 529.066406 402.449219 C 529.066406 410.734375 522.347656 417.453125 514.058594 417.453125 C 505.769531 417.453125 492.179688 408.082031 492.179688 399.796875 C 492.179688 391.507812 505.769531 387.441406 514.058594 387.441406 C 522.347656 387.441406 529.066406 394.160156 529.066406 402.449219 Z M 575.347656 277.796875 C 559.039062 287.210938 531.992188 294.234375 527.066406 285.707031 C 522.144531 277.183594 541.210938 256.335938 557.519531 246.925781 C 573.828125 237.511719 591.039062 236.789062 595.960938 245.316406 C 600.886719 253.839844 591.65625 268.382812 575.347656 277.796875 Z M 246.628906 95.03125 C 251.109375 107.214844 252.703125 126.410156 246.332031 128.75 C 239.960938 131.09375 228.039062 115.695312 223.558594 103.511719 C 219.078125 91.332031 220.609375 79.558594 226.980469 77.214844 C 233.351562 74.875 242.148438 82.851562 246.628906 95.03125 Z M 464.765625 369.546875 C 509.1875 409.277344 453.738281 399.730469 455.851562 415.035156 C 471.773438 530.148438 647.074219 538.058594 605.238281 585.054688 C 563.402344 632.050781 517.984375 471.804688 395.496094 477.226562 C 273.816406 478.066406 315.59375 621 249.679688 595.066406 C 196.445312 565.792969 298.445312 514.464844 239.101562 433.460938 C 184.78125 360.101562 79.066406 440.851562 77.292969 381.144531 C 75.515625 321.4375 201.734375 417.796875 251.84375 290.894531 C 299.378906 221.101562 236.699219 181.769531 267 173.980469 C 297.300781 166.1875 278.070312 237.574219 351.351562 252.679688 C 378.742188 258.324219 398.078125 196.480469 423.910156 213.625 C 449.742188 230.765625 419.207031 262.332031 431.546875 286.910156 C 447.066406 317.816406 491.789062 272.949219 503.304688 300.269531 C 514.820312 327.585938 451.367188 346.769531 464.765625 369.546875 C 478.628906 369.546875 521.082031 369.546875 464.765625 369.546875 Z M 464.765625 369.546875 " fill-opacity="1" fill-rule="nonzero"/><path fill="#fcd770" d="M 317.832031 434.375 C 345.183594 434.375 367.546875 455.757812 369.140625 482.691406 L 348.679688 480.636719 L 334.695312 449.179688 C 332.691406 444.65625 329.453125 440.953125 325.492188 438.386719 C 323.023438 436.792969 320.25 435.609375 313.769531 434.425781 L 313.769531 434.273438 C 315.109375 434.324219 316.445312 434.375 317.832031 434.375 Z M 317.832031 434.375 " fill-opacity="1" fill-rule="nonzero"/><path fill="#fcd770" d="M 334.695312 449.179688 L 348.679688 480.636719 L 309.144531 498.214844 C 300.351562 490.710938 293.308594 480.945312 288.785156 469.6875 C 287.601562 466.707031 286.984375 463.570312 286.984375 460.4375 L 286.984375 459.304688 C 286.984375 445.53125 298.140625 434.375 311.921875 434.375 C 312.535156 434.375 313.152344 434.375 313.769531 434.425781 C 320.25 435.609375 323.023438 436.792969 325.492188 438.386719 C 329.453125 440.953125 332.691406 444.65625 334.695312 449.179688 Z M 334.695312 449.179688 " fill-opacity="1" fill-rule="nonzero"/><path fill="#b27946" d="M 397.570312 275.699219 L 394.949219 273.746094 C 398.238281 267.421875 400.089844 260.277344 400.089844 252.824219 L 400.089844 249.328125 L 369.242188 254.46875 L 364.101562 228.769531 L 333.253906 244.1875 L 328.113281 218.488281 L 292.125 239.046875 L 292.125 223.628906 C 282.410156 226.867188 273.722656 232.261719 266.730469 239.355469 C 259.632812 246.347656 254.238281 255.035156 250.996094 264.75 L 246.523438 266.546875 C 240.097656 269.117188 234.804688 273.488281 231.101562 278.988281 C 227.398438 284.4375 225.292969 290.964844 225.292969 297.902344 C 225.292969 303.148438 226.527344 308.339844 228.839844 313.015625 L 233.828125 322.9375 C 235.882812 321.855469 238.246094 321.292969 240.714844 321.292969 L 245.855469 321.292969 C 245.855469 304.277344 259.6875 290.449219 276.703125 290.449219 L 358.960938 290.449219 C 364.152344 290.449219 369.089844 291.734375 373.355469 293.996094 C 383.125 299.1875 389.808594 309.46875 389.808594 321.292969 L 394.949219 321.292969 C 397.621094 321.292969 400.140625 321.960938 402.300781 323.140625 L 404.972656 319.082031 C 408.523438 313.839844 410.371094 307.617188 410.371094 301.296875 C 410.371094 291.222656 405.644531 281.761719 397.570312 275.699219 Z M 397.570312 275.699219 " fill-opacity="1" fill-rule="nonzero"/><path fill="#e6e9ed" d="M 533.757812 269.890625 L 533.757812 357.273438 C 533.757812 360.101562 531.445312 362.414062 528.617188 362.414062 L 513.09375 362.414062 C 513.144531 361.949219 513.195312 361.488281 513.195312 361.078125 C 513.195312 356.140625 509.183594 352.132812 504.25 352.132812 L 499.261719 352.132812 C 495.304688 352.132812 491.859375 354.703125 490.675781 358.453125 L 489.496094 362.414062 L 436.078125 362.414062 C 433.25 362.414062 430.9375 360.101562 430.9375 357.273438 L 430.9375 269.890625 Z M 533.757812 269.890625 " fill-opacity="1" fill-rule="nonzero"/><path fill="#b4dd7f" d="M 436.078125 239.046875 L 528.617188 239.046875 C 531.445312 239.046875 533.757812 241.363281 533.757812 244.1875 L 533.757812 269.890625 L 430.9375 269.890625 L 430.9375 244.1875 C 430.9375 241.363281 433.25 239.046875 436.078125 239.046875 Z M 436.078125 239.046875 " fill-opacity="1" fill-rule="nonzero"/><path fill="#ccd1d9" d="M 489.75 439.515625 L 479.160156 474.316406 C 477.976562 478.066406 474.535156 480.636719 470.574219 480.636719 L 465.589844 480.636719 C 460.652344 480.636719 456.644531 476.628906 456.644531 471.691406 C 456.644531 470.820312 456.796875 469.945312 457.054688 469.070312 L 489.496094 362.414062 L 490.675781 358.453125 C 491.859375 354.703125 495.304688 352.132812 499.261719 352.132812 L 504.25 352.132812 C 509.183594 352.132812 513.195312 356.140625 513.195312 361.078125 C 513.195312 361.488281 513.144531 361.949219 513.09375 362.414062 C 512.988281 362.824219 512.886719 363.234375 512.785156 363.699219 L 503.324219 394.746094 L 503.324219 394.796875 Z M 489.75 439.515625 " fill-opacity="1" fill-rule="nonzero"/><path fill="#aab2bd" d="M 533.757812 506.339844 L 533.757812 521.757812 C 533.757812 524.585938 531.445312 526.898438 528.617188 526.898438 L 477.207031 526.898438 C 474.378906 526.898438 472.066406 524.585938 472.066406 521.757812 L 472.066406 511.476562 C 472.066406 508.652344 474.378906 506.339844 477.207031 506.339844 Z M 533.757812 506.339844 " fill-opacity="1" fill-rule="nonzero"/><path fill="#aab2bd" d="M 451.5 511.476562 L 451.5 521.757812 C 451.5 524.585938 449.1875 526.898438 446.359375 526.898438 L 374.382812 526.898438 C 371.558594 526.898438 369.242188 524.585938 369.242188 521.757812 L 369.242188 511.476562 C 369.242188 508.652344 371.558594 506.339844 374.382812 506.339844 L 446.359375 506.339844 C 449.1875 506.339844 451.5 508.652344 451.5 511.476562 Z M 451.5 511.476562 " fill-opacity="1" fill-rule="nonzero"/><path fill="#f0d0b4" d="M 400.089844 506.339844 L 374.382812 506.339844 C 371.558594 506.339844 369.242188 508.652344 369.242188 511.476562 L 369.242188 516.617188 L 358.140625 516.617188 C 339.734375 516.617188 322.460938 509.882812 309.144531 498.214844 L 348.679688 480.636719 L 369.140625 482.691406 L 379.628906 483.722656 C 391.246094 484.902344 400.089844 494.667969 400.089844 506.339844 Z M 400.089844 506.339844 " fill-opacity="1" fill-rule="nonzero"/><path fill="#f0d0b4" d="M 402.300781 323.140625 C 407.132812 325.761719 410.371094 330.851562 410.371094 336.710938 C 410.371094 340.976562 408.625 344.832031 405.847656 347.609375 C 403.070312 350.386719 399.214844 352.132812 394.949219 352.132812 L 389.808594 352.132812 L 389.808594 321.292969 L 394.949219 321.292969 C 397.621094 321.292969 400.140625 321.960938 402.300781 323.140625 Z M 402.300781 323.140625 " fill-opacity="1" fill-rule="nonzero"/><path fill="#f0d0b4" d="M 328.113281 331.570312 C 328.113281 325.917969 332.742188 321.292969 338.398438 321.292969 L 379.527344 321.292969 C 385.179688 321.292969 389.808594 325.917969 389.808594 331.570312 L 389.808594 321.292969 C 389.808594 309.46875 383.125 299.1875 373.355469 293.996094 C 369.089844 291.734375 364.152344 290.449219 358.960938 290.449219 L 276.703125 290.449219 C 259.6875 290.449219 245.855469 304.277344 245.855469 321.292969 L 245.855469 331.570312 C 245.855469 325.917969 250.484375 321.292969 256.140625 321.292969 L 297.269531 321.292969 C 302.921875 321.292969 307.550781 325.917969 307.550781 331.570312 L 307.550781 362.414062 C 307.550781 368.066406 302.921875 372.691406 297.269531 372.691406 L 256.140625 372.691406 C 250.84375 372.691406 246.421875 368.632812 245.90625 363.441406 C 246.421875 401.324219 276.242188 432.164062 313.769531 434.273438 C 315.109375 434.324219 316.445312 434.375 317.832031 434.375 C 337.675781 434.375 355.671875 426.304688 368.730469 413.300781 C 381.53125 400.5 389.550781 382.921875 389.757812 363.441406 C 389.242188 368.632812 384.820312 372.691406 379.527344 372.691406 L 338.398438 372.691406 C 332.742188 372.691406 328.113281 368.066406 328.113281 362.414062 Z M 328.113281 331.570312 " fill-opacity="1" fill-rule="nonzero"/><path fill="#f0d0b4" d="M 245.855469 321.292969 L 245.855469 352.132812 L 240.714844 352.132812 C 236.449219 352.132812 232.59375 350.386719 229.816406 347.609375 C 227.039062 344.832031 225.292969 340.976562 225.292969 336.710938 C 225.292969 330.648438 228.738281 325.453125 233.828125 322.9375 C 235.882812 321.855469 238.246094 321.292969 240.714844 321.292969 Z M 245.855469 321.292969 " fill-opacity="1" fill-rule="nonzero"/><path fill="#69d6f4" d="M 389.808594 352.132812 L 389.808594 362.414062 C 389.808594 362.773438 389.808594 363.132812 389.757812 363.441406 C 389.242188 368.632812 384.820312 372.691406 379.527344 372.691406 L 338.398438 372.691406 C 332.742188 372.691406 328.113281 368.066406 328.113281 362.414062 L 328.113281 331.570312 C 328.113281 325.917969 332.742188 321.292969 338.398438 321.292969 L 379.527344 321.292969 C 385.179688 321.292969 389.808594 325.917969 389.808594 331.570312 Z M 389.808594 352.132812 " fill-opacity="1" fill-rule="nonzero"/><path fill="#69d6f4" d="M 307.550781 341.851562 L 307.550781 362.414062 C 307.550781 368.066406 302.921875 372.691406 297.269531 372.691406 L 256.140625 372.691406 C 250.84375 372.691406 246.421875 368.632812 245.90625 363.441406 C 245.855469 363.132812 245.855469 362.773438 245.855469 362.414062 L 245.855469 331.570312 C 245.855469 325.917969 250.484375 321.292969 256.140625 321.292969 L 297.269531 321.292969 C 302.921875 321.292969 307.550781 325.917969 307.550781 331.570312 Z M 307.550781 341.851562 " fill-opacity="1" fill-rule="nonzero"/><path fill="#000000" d="M 348.140625 395.550781 L 338.941406 390.953125 C 336.648438 395.542969 332.03125 398.390625 326.902344 398.390625 L 302.410156 398.390625 L 302.410156 408.667969 L 326.902344 408.667969 C 335.945312 408.675781 344.082031 403.640625 348.140625 395.550781 Z M 348.140625 395.550781 " fill-opacity="1" fill-rule="nonzero"/><path fill="#000000" d="M 266.421875 353.34375 C 268.378906 349.421875 272.316406 346.992188 276.703125 346.992188 C 281.089844 346.992188 285.027344 349.429688 286.984375 353.34375 L 287.523438 354.429688 L 296.722656 349.828125 L 296.183594 348.746094 C 292.472656 341.324219 285.007812 336.707031 276.703125 336.707031 C 268.398438 336.707031 260.933594 341.316406 257.222656 348.746094 L 256.683594 349.828125 L 265.882812 354.429688 Z M 266.421875 353.34375 " fill-opacity="1" fill-rule="nonzero"/><path fill="#000000" d="M 358.960938 336.710938 C 350.660156 336.710938 343.195312 341.324219 339.480469 348.75 L 338.941406 349.835938 L 348.140625 354.433594 L 348.679688 353.34375 C 350.636719 349.421875 354.574219 346.992188 358.960938 346.992188 C 363.347656 346.992188 367.285156 349.429688 369.242188 353.34375 L 369.785156 354.429688 L 378.980469 349.828125 L 378.441406 348.746094 C 374.730469 341.324219 367.265625 336.710938 358.960938 336.710938 Z M 358.960938 336.710938 " fill-opacity="1" fill-rule="nonzero"/><g clip-path="url(#6e78eefb7e)"><path fill="#000000" d="M 446.359375 501.199219 L 404.753906 501.199219 C 402.53125 489.214844 392.699219 479.875 380.144531 478.613281 L 373.808594 477.980469 C 371.203125 459.121094 359.335938 443.34375 343.039062 435.199219 C 373.203125 424.726562 394.949219 396.097656 394.949219 362.414062 L 394.949219 357.273438 C 406.289062 357.273438 415.515625 348.050781 415.515625 336.710938 C 415.515625 330.929688 413.097656 325.71875 409.242188 321.980469 L 409.273438 321.929688 C 413.355469 315.796875 415.515625 308.671875 415.515625 301.316406 C 415.515625 289.953125 410.183594 279.109375 401.257812 272.109375 C 403.777344 266.089844 405.230469 259.566406 405.230469 252.796875 L 405.230469 243.257812 L 373.308594 248.578125 L 367.824219 221.160156 L 336.976562 236.582031 L 331.753906 210.484375 L 297.269531 230.1875 L 297.269531 216.492188 L 290.503906 218.75 C 270.421875 225.4375 254.292969 241.074219 246.925781 260.84375 L 244.621094 261.761719 C 229.753906 267.703125 220.152344 281.890625 220.152344 297.898438 C 220.152344 303.90625 221.570312 309.921875 224.257812 315.304688 L 227.257812 321.292969 C 222.9375 325.058594 220.152344 330.539062 220.152344 336.710938 C 220.152344 348.050781 229.375 357.273438 240.714844 357.273438 L 240.714844 362.414062 C 240.714844 396.445312 262.90625 425.34375 293.554688 435.542969 C 286.445312 441.042969 281.84375 449.632812 281.84375 459.296875 L 281.84375 460.414062 C 281.84375 464.246094 282.570312 468.003906 283.992188 471.582031 C 296.1875 502.0625 325.28125 521.757812 358.125 521.757812 L 364.101562 521.757812 C 364.101562 527.429688 368.714844 532.039062 374.382812 532.039062 L 446.359375 532.039062 C 452.03125 532.039062 456.644531 527.429688 456.644531 521.757812 L 456.644531 511.476562 C 456.644531 505.808594 452.03125 501.199219 446.359375 501.199219 Z M 363.207031 476.921875 L 352.164062 475.816406 L 339.398438 447.085938 C 338.929688 446.039062 338.367188 445.0625 337.789062 444.085938 C 350.734375 450.300781 360.375 462.347656 363.207031 476.921875 Z M 379.527344 367.554688 L 338.398438 367.554688 C 335.558594 367.554688 333.253906 365.25 333.253906 362.414062 L 333.253906 331.570312 C 333.253906 328.734375 335.558594 326.429688 338.398438 326.429688 L 379.527344 326.429688 C 382.363281 326.429688 384.667969 328.734375 384.667969 331.570312 L 384.667969 362.414062 C 384.667969 365.246094 382.363281 367.554688 379.527344 367.554688 Z M 322.972656 331.570312 L 322.972656 336.710938 L 312.691406 336.710938 L 312.691406 331.570312 C 312.691406 323.070312 305.769531 316.152344 297.269531 316.152344 L 256.140625 316.152344 C 254.488281 316.152344 252.925781 316.480469 251.433594 316.964844 C 253.507812 304.859375 264.011719 295.589844 276.703125 295.589844 L 358.960938 295.589844 C 371.648438 295.589844 382.15625 304.851562 384.230469 316.964844 C 382.738281 316.480469 381.175781 316.152344 379.527344 316.152344 L 338.398438 316.152344 C 329.894531 316.152344 322.972656 323.066406 322.972656 331.570312 Z M 250.996094 362.414062 L 250.996094 331.570312 C 250.996094 328.734375 253.300781 326.429688 256.140625 326.429688 L 297.269531 326.429688 C 300.105469 326.429688 302.410156 328.734375 302.410156 331.570312 L 302.410156 362.414062 C 302.410156 365.25 300.105469 367.554688 297.269531 367.554688 L 256.140625 367.554688 C 253.300781 367.554688 250.996094 365.246094 250.996094 362.414062 Z M 394.949219 346.992188 L 394.949219 326.429688 C 400.621094 326.429688 405.230469 331.042969 405.230469 336.710938 C 405.230469 342.382812 400.621094 346.992188 394.949219 346.992188 Z M 405.230469 301.316406 C 405.230469 306.636719 403.667969 311.792969 400.71875 316.222656 L 400.25 316.925781 C 398.546875 316.46875 396.796875 316.152344 394.949219 316.152344 L 394.539062 316.152344 C 393.304688 307.585938 389.058594 300.007812 382.894531 294.496094 C 388.1875 290.949219 392.691406 286.464844 396.25 281.316406 C 401.894531 286.375 405.230469 293.671875 405.230469 301.316406 Z M 286.984375 231.230469 L 286.984375 247.90625 L 324.476562 226.484375 L 329.535156 251.789062 L 360.378906 236.371094 L 365.175781 260.355469 L 394.863281 255.410156 C 393.945312 269.390625 385.679688 281.855469 373.207031 288.261719 C 368.832031 286.367188 364.019531 285.304688 358.960938 285.304688 L 276.703125 285.304688 C 274.828125 285.304688 272.996094 285.496094 271.195312 285.773438 L 256.753906 264.117188 C 262.234375 249.6875 273.128906 237.835938 286.984375 231.230469 Z M 233.457031 310.703125 C 231.476562 306.75 230.433594 302.320312 230.433594 297.898438 C 230.433594 286.117188 237.503906 275.683594 248.4375 271.308594 L 249.035156 271.066406 L 260.976562 288.976562 C 250.476562 294.105469 242.855469 304.167969 241.125 316.144531 L 240.714844 316.144531 C 239.238281 316.144531 237.804688 316.316406 236.417969 316.613281 Z M 230.433594 336.710938 C 230.433594 331.042969 235.042969 326.429688 240.714844 326.429688 L 240.714844 346.992188 C 235.042969 346.992188 230.433594 342.375 230.433594 336.710938 Z M 252.761719 377.433594 C 253.851562 377.679688 254.972656 377.828125 256.140625 377.828125 L 297.269531 377.828125 C 305.769531 377.828125 312.691406 370.910156 312.691406 362.40625 L 312.691406 346.988281 L 322.972656 346.988281 L 322.972656 362.40625 C 322.972656 370.910156 329.894531 377.828125 338.398438 377.828125 L 379.527344 377.828125 C 380.6875 377.828125 381.8125 377.675781 382.902344 377.433594 C 376.054688 407.058594 349.511719 429.234375 317.832031 429.234375 C 286.152344 429.234375 259.609375 407.058594 252.761719 377.433594 Z M 293.539062 467.769531 C 292.605469 465.410156 292.125 462.933594 292.125 460.414062 L 292.125 459.296875 C 292.125 448.386719 301.003906 439.511719 311.914062 439.511719 C 319.730469 439.511719 326.824219 444.121094 330 451.261719 L 341.898438 478.019531 L 310.019531 492.1875 C 303.011719 485.46875 297.328125 477.230469 293.539062 467.769531 Z M 364.101562 511.476562 L 358.125 511.476562 C 343.757812 511.476562 330.21875 507.144531 318.949219 499.476562 L 349.527344 485.890625 L 379.121094 488.847656 C 386.359375 489.570312 392.101562 494.578125 394.121094 501.199219 L 374.382812 501.199219 C 368.714844 501.199219 364.101562 505.808594 364.101562 511.476562 Z M 374.382812 521.757812 L 374.382812 511.476562 L 446.359375 511.476562 L 446.371094 521.757812 Z M 374.382812 521.757812 " fill-opacity="1" fill-rule="nonzero"/></g><path fill="#000000" d="M 386.171875 420.460938 L 367.113281 439.515625 L 386.171875 458.570312 L 393.441406 451.300781 L 381.65625 439.515625 L 393.441406 427.730469 Z M 386.171875 420.460938 " fill-opacity="1" fill-rule="nonzero"/><path fill="#000000" d="M 434.570312 458.570312 L 453.628906 439.515625 L 434.570312 420.460938 L 427.300781 427.730469 L 439.089844 439.515625 L 427.300781 451.300781 Z M 434.570312 458.570312 " fill-opacity="1" fill-rule="nonzero"/><path fill="#000000" d="M 395.320312 463.304688 L 415.886719 411.902344 L 425.433594 415.722656 L 404.867188 467.121094 Z M 395.320312 463.304688 " fill-opacity="1" fill-rule="nonzero"/><g clip-path="url(#0396e0a8a8)"><path fill="#000000" d="M 528.617188 367.554688 C 534.289062 367.554688 538.902344 362.941406 538.902344 357.273438 L 538.902344 244.1875 C 538.902344 238.519531 534.289062 233.910156 528.617188 233.910156 L 436.078125 233.910156 C 430.40625 233.910156 425.796875 238.519531 425.796875 244.1875 L 425.796875 357.273438 C 425.796875 362.941406 430.40625 367.554688 436.078125 367.554688 L 482.558594 367.554688 L 452.109375 467.589844 C 451.707031 468.914062 451.5 470.296875 451.5 471.683594 C 451.5 479.453125 457.820312 485.773438 465.59375 485.773438 L 470.574219 485.773438 C 476.816406 485.773438 482.242188 481.761719 484.058594 475.785156 L 493.535156 444.652344 L 512.253906 444.652344 L 528.222656 500.515625 C 528.289062 500.742188 528.339844 500.964844 528.386719 501.191406 L 477.207031 501.191406 C 471.535156 501.191406 466.925781 505.804688 466.925781 511.472656 L 466.925781 521.753906 C 466.925781 527.421875 471.535156 532.035156 477.207031 532.035156 L 528.617188 532.035156 C 534.289062 532.035156 538.902344 527.421875 538.902344 521.753906 L 538.902344 503.351562 C 538.902344 501.453125 538.632812 499.558594 538.113281 497.703125 L 508.707031 394.8125 L 517.003906 367.546875 L 528.617188 367.546875 Z M 528.617188 521.757812 L 477.207031 521.757812 L 477.207031 511.476562 L 528.617188 511.476562 Z M 517.746094 357.273438 C 516.070312 351.363281 510.6875 346.992188 504.238281 346.992188 L 499.261719 346.992188 C 498.753906 346.992188 498.265625 347.058594 497.773438 347.109375 L 497.773438 275.03125 L 528.617188 275.03125 L 528.617188 357.273438 Z M 528.617188 244.1875 L 528.617188 264.75 L 477.207031 264.75 L 477.207031 254.46875 L 466.925781 254.46875 L 466.925781 264.75 L 456.644531 264.75 L 456.644531 254.46875 L 446.359375 254.46875 L 446.359375 264.75 L 436.078125 264.75 L 436.078125 244.1875 Z M 436.078125 357.273438 L 436.078125 275.03125 L 487.488281 275.03125 L 487.488281 353.382812 C 486.773438 354.480469 486.179688 355.675781 485.777344 356.984375 L 485.691406 357.277344 L 436.078125 357.277344 Z M 474.226562 472.789062 C 473.726562 474.40625 472.261719 475.492188 470.574219 475.492188 L 465.59375 475.492188 C 463.492188 475.492188 461.785156 473.785156 461.785156 471.683594 C 461.785156 471.308594 461.839844 470.933594 461.949219 470.574219 L 495.613281 359.972656 C 496.109375 358.351562 497.578125 357.265625 499.261719 357.265625 L 504.246094 357.265625 C 506.347656 357.265625 508.054688 358.972656 508.054688 361.078125 C 508.054688 361.453125 507.996094 361.828125 507.890625 362.1875 Z M 509.320312 434.375 L 496.667969 434.375 L 503.191406 412.941406 Z M 509.320312 434.375 " fill-opacity="1" fill-rule="nonzero"/></g><path fill="#000000" d="M 508.054688 285.308594 L 518.335938 285.308594 L 518.335938 295.589844 L 508.054688 295.589844 Z M 508.054688 285.308594 " fill-opacity="1" fill-rule="nonzero"/><path fill="#000000" d="M 508.054688 305.871094 L 518.335938 305.871094 L 518.335938 316.152344 L 508.054688 316.152344 Z M 508.054688 305.871094 " fill-opacity="1" fill-rule="nonzero"/><path fill="#000000" d="M 446.359375 285.308594 L 477.207031 285.308594 L 477.207031 295.589844 L 446.359375 295.589844 Z M 446.359375 285.308594 " fill-opacity="1" fill-rule="nonzero"/><path fill="#000000" d="M 446.359375 305.871094 L 477.207031 305.871094 L 477.207031 316.152344 L 446.359375 316.152344 Z M 446.359375 305.871094 " fill-opacity="1" fill-rule="nonzero"/><path fill="#000000" d="M 446.359375 326.429688 L 477.207031 326.429688 L 477.207031 336.710938 L 446.359375 336.710938 Z M 446.359375 326.429688 " fill-opacity="1" fill-rule="nonzero"/><path fill="#000000" d="M 508.054688 326.429688 L 518.335938 326.429688 L 518.335938 336.710938 L 508.054688 336.710938 Z M 508.054688 326.429688 " fill-opacity="1" fill-rule="nonzero"/></svg>