<svg width="35" height="35" viewBox="0 0 35 35" fill="none" xmlns="http://www.w3.org/2000/svg">
<path d="M33.0919 10.141V30.9566H1.06721V10.141C1.06721 10.0359 1.07752 9.93164 1.09812 9.82863C1.11872 9.72562 1.14921 9.62549 1.18918 9.52825C1.22956 9.431 1.27901 9.3387 1.33711 9.25135C1.39562 9.16399 1.46196 9.08323 1.53654 9.00865C1.61071 8.93448 1.69147 8.86814 1.77883 8.80963C1.8666 8.75112 1.95889 8.70167 2.05573 8.6617C2.15297 8.62132 2.2531 8.59083 2.35611 8.57064C2.45954 8.55004 2.56337 8.53973 2.66845 8.53973H31.4906C31.5957 8.53973 31.6996 8.55004 31.803 8.57064C31.906 8.59083 32.0061 8.62132 32.1034 8.6617C32.2002 8.70167 32.2925 8.75112 32.3798 8.80963C32.4676 8.86814 32.5484 8.93448 32.6225 9.00865C32.6971 9.08323 32.7635 9.16399 32.822 9.25135C32.8801 9.3387 32.9295 9.431 32.9699 9.52825C33.0099 9.62549 33.0404 9.72562 33.061 9.82863C33.0816 9.93164 33.0919 10.0359 33.0919 10.141Z" fill="#50D9D7"/>
<mask id="mask0_247_135" style="mask-type:luminance" maskUnits="userSpaceOnUse" x="0" y="30" width="35" height="5">
<path d="M0 30.9113H34.1591V34.159H0V30.9113Z" fill="white"/>
</mask>
<g mask="url(#mask0_247_135)">
<path d="M0.533607 30.9566H33.6255C33.6605 30.9566 33.6951 30.9603 33.7297 30.9669C33.7639 30.9739 33.7973 30.9838 33.8299 30.9974C33.862 31.0106 33.8929 31.0271 33.9217 31.0468C33.951 31.0662 33.9782 31.0885 34.0029 31.1132C34.0276 31.1379 34.0499 31.1647 34.0693 31.1939C34.0886 31.2232 34.1051 31.2537 34.1187 31.2862C34.1319 31.3188 34.1422 31.3522 34.1488 31.3864C34.1558 31.4206 34.1591 31.4556 34.1591 31.4906V32.5578C34.1591 32.6629 34.1488 32.7672 34.1282 32.8702C34.108 32.9736 34.0775 33.0737 34.0371 33.1706C33.9971 33.2678 33.9477 33.3601 33.8892 33.4475C33.8307 33.5348 33.7643 33.616 33.6902 33.6902C33.616 33.7643 33.5348 33.8311 33.4475 33.8892C33.3601 33.9477 33.2678 33.9971 33.1706 34.0371C33.0737 34.0775 32.9736 34.108 32.8702 34.1286C32.7672 34.1488 32.6629 34.1591 32.5579 34.1591H1.60123C1.49616 34.1591 1.39191 34.1488 1.2889 34.1286C1.18547 34.108 1.08534 34.0775 0.988512 34.0371C0.891268 33.9971 0.798968 33.9477 0.711613 33.8892C0.624258 33.8311 0.543084 33.7643 0.468915 33.6902C0.394746 33.616 0.327993 33.5348 0.269894 33.4475C0.211383 33.3601 0.161936 33.2678 0.121967 33.1706C0.0815862 33.0737 0.0510944 32.9736 0.0304918 32.8702C0.0103013 32.7672 0 32.6629 0 32.5578V31.4906C0 31.4556 0.00329644 31.4206 0.0103013 31.3864C0.0168941 31.3522 0.0271954 31.3188 0.0403811 31.2862C0.0539787 31.2537 0.0704608 31.2232 0.0898273 31.1939C0.109194 31.1647 0.131444 31.1379 0.156168 31.1132C0.180891 31.0885 0.208086 31.0662 0.237342 31.0468C0.266185 31.0271 0.297089 31.0106 0.329229 30.9974C0.361781 30.9838 0.395158 30.9739 0.429358 30.9669C0.46397 30.9603 0.498583 30.9566 0.533607 30.9566Z" fill="#00AAA8"/>
</g>
<path d="M32.0242 10.141V29.8894H2.13484V10.141C2.13484 10.1059 2.13814 10.0713 2.14514 10.0367C2.15215 10.0025 2.16204 9.96914 2.17564 9.93659C2.18882 9.90445 2.2053 9.87355 2.22467 9.84429C2.24445 9.81545 2.26629 9.78825 2.29101 9.76353C2.31614 9.73881 2.34293 9.71655 2.37218 9.69719C2.40103 9.67782 2.43193 9.66134 2.46448 9.64774C2.49662 9.63456 2.53 9.62425 2.56461 9.61766C2.59881 9.61066 2.63342 9.60736 2.66845 9.60736H31.4906C31.5257 9.60736 31.5603 9.61066 31.5945 9.61766C31.6291 9.62425 31.6625 9.63456 31.6946 9.64774C31.7272 9.66134 31.7577 9.67782 31.7869 9.69719C31.8162 9.71655 31.8429 9.73881 31.8681 9.76353C31.8928 9.78825 31.9146 9.81545 31.9344 9.84429C31.9538 9.87355 31.9703 9.90445 31.9835 9.93659C31.9971 9.96914 32.0069 10.0025 32.0139 10.0367C32.021 10.0713 32.0242 10.1059 32.0242 10.141Z" fill="white"/>
<path d="M20.8156 32.0242H13.3435C13.2734 32.0242 13.2038 32.0172 13.135 32.0036C13.0666 31.99 12.9998 31.9698 12.9347 31.9431C12.87 31.9163 12.8086 31.8833 12.7501 31.8442C12.692 31.8054 12.638 31.7609 12.5886 31.7115C12.5391 31.662 12.4946 31.6081 12.4559 31.55C12.4168 31.4915 12.3838 31.4301 12.357 31.3654C12.3302 31.3007 12.31 31.2339 12.2964 31.1651C12.2829 31.0963 12.2758 31.0267 12.2758 30.9566C12.2758 30.9035 11.8275 30.9566 21.8832 30.9566C21.8832 31.0267 21.8762 31.0963 21.8626 31.1651C21.849 31.2339 21.8289 31.3007 21.8021 31.3654C21.7753 31.4301 21.7423 31.4915 21.7032 31.55C21.6644 31.6081 21.6199 31.662 21.5705 31.7115C21.5211 31.7609 21.4671 31.8054 21.4086 31.8442C21.3505 31.8833 21.2891 31.9163 21.2244 31.9431C21.1593 31.9698 21.0925 31.99 21.0241 32.0036C20.9553 32.0172 20.8857 32.0242 20.8156 32.0242Z" fill="#F3F3F3"/>
<path d="M4.8037 8.53973H29.3554V9.60736H4.8037V8.53973Z" fill="#00BEBD"/>
<path d="M29.3554 9.60736V20.282C29.3554 20.352 29.3521 20.4217 29.3451 20.4913C29.3385 20.5609 29.3282 20.6297 29.3146 20.6986C29.301 20.767 29.2837 20.8349 29.2635 20.9017C29.2433 20.9685 29.2198 21.0344 29.193 21.0991C29.1663 21.1638 29.1362 21.2268 29.1036 21.2882C29.0707 21.35 29.0344 21.4098 28.9957 21.4683C28.9569 21.5264 28.9153 21.5824 28.8708 21.6364C28.8267 21.6904 28.7797 21.7423 28.7303 21.7917C28.6809 21.8412 28.6289 21.8877 28.575 21.9322C28.521 21.9767 28.4649 22.0184 28.4068 22.0571C28.3483 22.0958 28.2886 22.1317 28.2268 22.1646C28.1654 22.1976 28.1023 22.2277 28.0376 22.2545C27.973 22.2812 27.907 22.3047 27.8403 22.3249C27.7735 22.3451 27.7055 22.3624 27.6371 22.376C27.5683 22.3896 27.4995 22.3999 27.4299 22.4065C27.3602 22.4135 27.2906 22.4168 27.2205 22.4168H6.93854C6.86849 22.4168 6.79885 22.4135 6.72921 22.4065C6.65958 22.3999 6.59076 22.3896 6.52195 22.376C6.45355 22.3624 6.38556 22.3451 6.31881 22.3249C6.25206 22.3047 6.18613 22.2812 6.12144 22.2545C6.05674 22.2277 5.9937 22.1976 5.93231 22.1646C5.8705 22.1317 5.81034 22.0958 5.75224 22.0571C5.69414 22.0184 5.6381 21.9767 5.58412 21.9322C5.53014 21.8877 5.47822 21.8412 5.42878 21.7917C5.37933 21.7423 5.33236 21.6904 5.28827 21.6364C5.24377 21.5824 5.20215 21.5264 5.16342 21.4683C5.12468 21.4098 5.08842 21.35 5.05546 21.2882C5.0225 21.2268 4.99283 21.1638 4.96604 21.0991C4.93926 21.0344 4.91577 20.9685 4.89558 20.9017C4.87539 20.8349 4.85809 20.767 4.84449 20.6986C4.83089 20.6297 4.82059 20.5609 4.814 20.4913C4.80699 20.4217 4.8037 20.352 4.8037 20.282V9.60736H29.3554Z" fill="#F3F3F3"/>
<path d="M6.93854 6.40491H27.2205C27.2906 6.40491 27.3602 6.4115 27.4286 6.4251C27.4974 6.43911 27.5642 6.4593 27.6289 6.48608C27.694 6.51286 27.7554 6.54583 27.8135 6.58456C27.872 6.62371 27.926 6.6678 27.9754 6.71724C28.0249 6.7671 28.0694 6.82108 28.1081 6.87918C28.1473 6.93728 28.1798 6.99909 28.2066 7.06378C28.2338 7.12847 28.254 7.19522 28.2676 7.26404C28.2812 7.33285 28.2882 7.40207 28.2882 7.47212V20.282C28.2882 20.352 28.2812 20.4217 28.2676 20.4901C28.254 20.5589 28.2338 20.6256 28.2066 20.6903C28.1798 20.7554 28.1473 20.8168 28.1081 20.8749C28.0694 20.9334 28.0249 20.9874 27.9754 21.0369C27.926 21.0863 27.872 21.1304 27.8135 21.1695C27.7554 21.2087 27.694 21.2412 27.6289 21.268C27.5642 21.2948 27.4974 21.3154 27.4286 21.329C27.3602 21.3426 27.2906 21.3496 27.2205 21.3496H6.93854C6.86849 21.3496 6.79885 21.3426 6.73045 21.329C6.66164 21.3154 6.59489 21.2948 6.53019 21.268C6.46509 21.2412 6.40369 21.2087 6.34559 21.1695C6.28708 21.1304 6.2331 21.0863 6.18366 21.0369C6.13421 20.9874 6.08971 20.9334 6.05098 20.8749C6.01183 20.8168 5.97928 20.7554 5.9525 20.6903C5.9253 20.6256 5.90511 20.5589 5.89151 20.4901C5.87792 20.4217 5.87091 20.352 5.87091 20.282V7.47212C5.87091 7.40207 5.87792 7.33285 5.89151 7.26404C5.90511 7.19522 5.9253 7.12847 5.9525 7.06378C5.97928 6.99909 6.01183 6.93728 6.05098 6.87918C6.08971 6.82108 6.13421 6.7671 6.18366 6.71724C6.2331 6.6678 6.28708 6.62371 6.34559 6.58456C6.40369 6.54583 6.46509 6.51286 6.53019 6.48608C6.59489 6.4593 6.66164 6.43911 6.73045 6.4251C6.79885 6.4115 6.86849 6.40491 6.93854 6.40491Z" fill="#50D9D7"/>
<path d="M28.2882 7.47212L17.0795 14.4107L5.87091 7.47212C5.87091 7.40207 5.87792 7.33285 5.89151 7.26404C5.90511 7.19522 5.9253 7.12847 5.9525 7.06378C5.97928 6.99909 6.01183 6.93728 6.05098 6.87918C6.08971 6.82108 6.13421 6.7671 6.18366 6.71724C6.2331 6.6678 6.28708 6.62371 6.34559 6.58456C6.40369 6.54583 6.46509 6.51286 6.53019 6.48608C6.59489 6.4593 6.66164 6.43911 6.73045 6.4251C6.79885 6.4115 6.86849 6.40491 6.93854 6.40491H27.2205C27.2906 6.40491 27.3602 6.4115 27.4286 6.4251C27.4974 6.43911 27.5642 6.4593 27.6289 6.48608C27.694 6.51286 27.7554 6.54583 27.8135 6.58456C27.872 6.62371 27.926 6.6678 27.9754 6.71724C28.0249 6.7671 28.0694 6.82108 28.1081 6.87918C28.1473 6.93728 28.1798 6.99909 28.2066 7.06378C28.2338 7.12847 28.254 7.19522 28.2676 7.26404C28.2812 7.33285 28.2882 7.40207 28.2882 7.47212Z" fill="#93E6E5"/>
<path d="M20.015 9.24436C19.5881 9.73016 19.5453 9.60737 14.9447 9.60737C14.8685 9.60779 14.7931 9.60037 14.7189 9.58471C14.6443 9.56946 14.5722 9.54598 14.5026 9.51507C14.4333 9.48458 14.3678 9.44667 14.3064 9.40176C14.245 9.35685 14.189 9.30575 14.1383 9.24889C14.0876 9.19202 14.044 9.13063 14.0065 9.06429C13.969 8.99795 13.9393 8.92872 13.9166 8.85579C13.894 8.78327 13.8795 8.7091 13.873 8.63328C13.8664 8.55747 13.8676 8.48165 13.8771 8.40624L14.1334 6.40491H20.0043C20.282 8.45445 20.4316 8.77462 20.015 9.24436Z" fill="#50D9D7"/>
<mask id="mask1_247_135" style="mask-type:luminance" maskUnits="userSpaceOnUse" x="13" y="0" width="8" height="9">
<path d="M13.2821 0H20.877V8.54842H13.2821V0Z" fill="white"/>
</mask>
<g mask="url(#mask1_247_135)">
<path d="M13.3435 4.26968L17.0795 0L20.8156 4.26968H18.6808L19.2144 8.53977H14.9447L15.4783 4.26968H13.3435Z" fill="#FFAC00"/>
</g>
<path d="M23.4845 21.3496H10.6746C10.6746 21.1399 10.6849 20.9306 10.7055 20.7217C10.7261 20.5128 10.757 20.3055 10.7978 20.0999C10.8386 19.8943 10.8897 19.6911 10.9503 19.49C11.0113 19.2894 11.0821 19.0924 11.1621 18.8983C11.2424 18.7047 11.3322 18.5151 11.4311 18.3301C11.53 18.1451 11.6376 17.9655 11.7542 17.7912C11.8708 17.6169 11.9956 17.4483 12.1283 17.2864C12.2614 17.124 12.4023 16.9687 12.5507 16.8204C12.699 16.672 12.8544 16.5315 13.0163 16.3984C13.1786 16.2653 13.3468 16.1405 13.5211 16.0239C13.6958 15.9077 13.8754 15.7997 14.0604 15.7008C14.2454 15.6019 14.4346 15.5125 14.6287 15.4322C14.8223 15.3518 15.0197 15.2813 15.2204 15.2204C15.421 15.1594 15.6242 15.1087 15.8302 15.0675C16.0358 15.0267 16.2431 14.9962 16.4516 14.9756C16.6605 14.955 16.8698 14.9447 17.0795 14.9447C17.2893 14.9447 17.4986 14.955 17.7075 14.9756C17.916 14.9962 18.1233 15.0267 18.3289 15.0675C18.5349 15.1087 18.738 15.1594 18.9387 15.2204C19.1394 15.2813 19.3368 15.3518 19.5304 15.4322C19.7245 15.5125 19.9136 15.6019 20.0986 15.7008C20.2837 15.7997 20.4633 15.9077 20.638 16.0239C20.8123 16.1405 20.9804 16.2653 21.1428 16.3984C21.3047 16.5315 21.4601 16.672 21.6084 16.8204C21.7567 16.9687 21.8977 17.124 22.0308 17.2864C22.1634 17.4483 22.2883 17.6169 22.4049 17.7912C22.5215 17.9655 22.629 18.1451 22.7279 18.3301C22.8268 18.5151 22.9167 18.7047 22.997 18.8983C23.0769 19.0924 23.1478 19.2894 23.2084 19.49C23.2694 19.6911 23.3205 19.8943 23.3613 20.0999C23.4021 20.3055 23.433 20.5128 23.4536 20.7217C23.4742 20.9306 23.4845 21.1399 23.4845 21.3496Z" fill="#00BEBD"/>
<path d="M22.4168 21.3496C22.4168 21.5243 22.4082 21.6986 22.3913 21.8725C22.374 22.0464 22.3484 22.2195 22.3142 22.3909C22.2805 22.5623 22.238 22.7316 22.1869 22.8989C22.1362 23.0662 22.0777 23.2306 22.0106 23.3922C21.9438 23.5537 21.8692 23.7115 21.7868 23.8656C21.7044 24.0197 21.6146 24.1693 21.5173 24.3147C21.4201 24.4602 21.3163 24.6003 21.2054 24.7354C21.0946 24.8706 20.9771 25 20.8535 25.1236C20.7299 25.2472 20.6005 25.3642 20.4654 25.4755C20.3302 25.5863 20.1901 25.6902 20.0447 25.7874C19.8996 25.8842 19.7496 25.9741 19.5955 26.0565C19.4414 26.1389 19.2836 26.2135 19.1221 26.2806C18.9606 26.3474 18.7961 26.4063 18.6289 26.457C18.4616 26.5077 18.2922 26.5501 18.1208 26.5843C17.9494 26.6185 17.7767 26.6441 17.6028 26.661C17.4285 26.6783 17.2542 26.6869 17.0795 26.6869C16.9048 26.6869 16.7305 26.6783 16.5562 26.661C16.3823 26.6441 16.2097 26.6185 16.0383 26.5843C15.8669 26.5501 15.6975 26.5077 15.5302 26.457C15.3629 26.4063 15.1985 26.3474 15.037 26.2806C14.8755 26.2135 14.7177 26.1389 14.5636 26.0565C14.4094 25.9741 14.2595 25.8842 14.1144 25.7874C13.969 25.6902 13.8289 25.5863 13.6937 25.4755C13.5586 25.3642 13.4292 25.2472 13.3056 25.1236C13.1819 25 13.0645 24.8706 12.9537 24.7354C12.8428 24.6003 12.739 24.4602 12.6417 24.3147C12.5445 24.1693 12.4547 24.0197 12.3723 23.8656C12.2899 23.7115 12.2153 23.5537 12.1485 23.3922C12.0814 23.2306 12.0228 23.0662 11.9722 22.8989C11.9211 22.7316 11.8786 22.5623 11.8448 22.3909C11.8106 22.2195 11.7851 22.0464 11.7678 21.8725C11.7509 21.6986 11.7422 21.5243 11.7422 21.3496C11.7422 21.1745 11.7509 21.0002 11.7678 20.8263C11.7851 20.6524 11.8106 20.4798 11.8448 20.3084C11.8786 20.1365 11.9211 19.9672 11.9722 19.7999C12.0228 19.633 12.0814 19.4686 12.1485 19.3071C12.2153 19.1456 12.2899 18.9877 12.3723 18.8336C12.4547 18.6791 12.5445 18.5295 12.6417 18.3841C12.739 18.2386 12.8428 18.0985 12.9537 17.9634C13.0645 17.8282 13.1819 17.6988 13.3056 17.5752C13.4292 17.4516 13.5586 17.3346 13.6937 17.2237C13.8289 17.1129 13.969 17.0087 14.1144 16.9114C14.2595 16.8146 14.4094 16.7248 14.5636 16.6423C14.7177 16.5599 14.8755 16.4853 15.037 16.4182C15.1985 16.3514 15.3629 16.2925 15.5302 16.2418C15.6975 16.1911 15.8669 16.1487 16.0383 16.1145C16.2097 16.0807 16.3823 16.0548 16.5562 16.0379C16.7305 16.0206 16.9048 16.0119 17.0795 16.0119C17.2542 16.0119 17.4285 16.0206 17.6028 16.0379C17.7767 16.0548 17.9494 16.0807 18.1208 16.1145C18.2922 16.1487 18.4616 16.1911 18.6289 16.2418C18.7961 16.2925 18.9606 16.3514 19.1221 16.4182C19.2836 16.4853 19.4414 16.5599 19.5955 16.6423C19.7496 16.7248 19.8996 16.8146 20.0447 16.9114C20.1901 17.0087 20.3302 17.1129 20.4654 17.2237C20.6005 17.3346 20.7299 17.4516 20.8535 17.5752C20.9771 17.6988 21.0946 17.8282 21.2054 17.9634C21.3163 18.0985 21.4201 18.2386 21.5173 18.3841C21.6146 18.5295 21.7044 18.6791 21.7868 18.8336C21.8692 18.9877 21.9438 19.1456 22.0106 19.3071C22.0777 19.4686 22.1362 19.633 22.1869 19.7999C22.238 19.9672 22.2805 20.1365 22.3142 20.3084C22.3484 20.4798 22.374 20.6524 22.3913 20.8263C22.4082 21.0002 22.4168 21.1745 22.4168 21.3496Z" fill="#FFAC00"/>
<path d="M17.7199 17.1278C17.6305 17.1137 17.5402 17.1026 17.4496 17.0948C17.3593 17.0866 17.2687 17.0816 17.178 17.0791C17.0874 17.0767 16.9963 17.0775 16.9057 17.0808C16.815 17.0845 16.7244 17.0907 16.6341 17.1001C16.5439 17.1092 16.4541 17.1216 16.3642 17.1364C16.2748 17.1512 16.1858 17.1694 16.0972 17.19C16.009 17.2106 15.9213 17.2341 15.8343 17.2604C15.7474 17.2868 15.6617 17.3157 15.5764 17.3474C15.4915 17.3791 15.4074 17.4137 15.3246 17.4508C15.2418 17.4879 15.1602 17.5274 15.0799 17.5699C14.9995 17.6123 14.9204 17.6568 14.8429 17.7042C14.7655 17.7516 14.6896 17.8015 14.6155 17.8538C14.5413 17.9057 14.4684 17.9601 14.3979 18.017C14.327 18.0738 14.2578 18.1328 14.1911 18.1941C14.1239 18.2555 14.0588 18.3186 13.9958 18.3841C13.9327 18.4492 13.8717 18.5168 13.8132 18.586C13.7543 18.6552 13.6978 18.7261 13.6439 18.799C13.5895 18.872 13.538 18.9466 13.4885 19.0228C13.4391 19.0986 13.3921 19.1765 13.3476 19.2556C13.3031 19.3347 13.2611 19.4151 13.2215 19.4971C13.1824 19.5786 13.1457 19.6619 13.1115 19.7459C13.0777 19.83 13.0464 19.9153 13.0175 20.0014C12.9891 20.0875 12.9632 20.1745 12.9401 20.2622C12.917 20.3504 12.8968 20.4386 12.8791 20.528C12.8618 20.617 12.8474 20.7064 12.8354 20.7967C12.8239 20.8865 12.8148 20.9767 12.809 21.0674C12.8029 21.158 12.8 21.2487 12.8 21.3397C12.7996 21.4304 12.8025 21.5211 12.8078 21.6117C12.8136 21.7024 12.8222 21.7926 12.8334 21.8828C12.8449 21.9727 12.8589 22.0625 12.8762 22.1515C12.8931 22.2409 12.9133 22.3295 12.936 22.4173C12.9586 22.505 12.9842 22.5924 13.0126 22.6785C13.0501 22.798 13.0934 22.9158 13.1416 23.0316C13.1898 23.1474 13.2429 23.2607 13.3014 23.3716C13.36 23.4828 13.423 23.5908 13.4914 23.6963C13.5594 23.8018 13.6319 23.9039 13.709 24.0028C13.7864 24.1017 13.8676 24.1969 13.9533 24.2884C14.039 24.3799 14.1288 24.4676 14.2224 24.5513C14.3159 24.6345 14.4128 24.714 14.5137 24.789C14.6142 24.8636 14.7177 24.9341 14.8248 24.9996C14.9315 25.0655 15.0411 25.1261 15.1536 25.1821C15.2657 25.2378 15.3807 25.2884 15.4973 25.3342C15.6143 25.3795 15.733 25.4199 15.8533 25.4549C15.9736 25.4899 16.0956 25.5196 16.2188 25.5435C16.3416 25.5678 16.4656 25.5864 16.5904 25.5995C16.7153 25.6123 16.8401 25.6201 16.9658 25.6218C17.0911 25.6239 17.2164 25.6201 17.3416 25.6107C17.4665 25.6012 17.5909 25.5864 17.7145 25.5662C17.7495 25.5592 17.7837 25.5493 17.8167 25.5357C17.8497 25.5225 17.8814 25.506 17.9111 25.4862C17.9407 25.4669 17.9683 25.4446 17.9939 25.4195C18.019 25.3948 18.0421 25.3671 18.0619 25.3379C18.0821 25.3082 18.099 25.2773 18.113 25.2444C18.127 25.2114 18.1373 25.1776 18.1447 25.143C18.1517 25.108 18.1558 25.0725 18.1558 25.0371C18.1562 25.0012 18.1529 24.9658 18.1464 24.9308C18.1398 24.8958 18.1299 24.862 18.1163 24.829C18.1031 24.7956 18.0866 24.7643 18.0672 24.7346C18.0475 24.7046 18.0252 24.677 18.0005 24.6518C17.9754 24.6263 17.9482 24.6036 17.9185 24.5834C17.8892 24.5632 17.8579 24.5463 17.8254 24.5323C17.7924 24.5183 17.7586 24.508 17.7236 24.5006C17.689 24.4932 17.6535 24.4895 17.6177 24.4891C17.5823 24.4886 17.5468 24.4919 17.5118 24.4985C17.4203 24.513 17.3284 24.5233 17.2361 24.5294C17.1434 24.536 17.0511 24.5381 16.9584 24.5364C16.8657 24.5344 16.7734 24.5286 16.6815 24.5183C16.5892 24.5084 16.4977 24.4944 16.4071 24.4763C16.316 24.4582 16.2262 24.4359 16.1376 24.4099C16.0486 24.384 15.9608 24.3539 15.8747 24.3201C15.7886 24.2863 15.7037 24.2488 15.6209 24.2072C15.5381 24.166 15.4573 24.1211 15.3782 24.0729C15.2991 24.0243 15.2224 23.9723 15.1483 23.9171C15.0737 23.8619 15.002 23.8038 14.9328 23.742C14.8635 23.6806 14.7972 23.6159 14.7337 23.5488C14.6703 23.4812 14.6097 23.4111 14.5524 23.3382C14.4952 23.2657 14.4412 23.1903 14.3905 23.1128C14.3398 23.0353 14.2928 22.9558 14.2492 22.8742C14.2055 22.7922 14.1655 22.709 14.1293 22.6237C14.093 22.5384 14.0604 22.4519 14.032 22.3637C13.9974 22.2508 13.9694 22.1362 13.9475 22.02C13.9257 21.9043 13.9105 21.7872 13.9014 21.6698C13.8923 21.552 13.8903 21.4341 13.8944 21.3163C13.8985 21.198 13.9088 21.0806 13.9261 20.964C13.943 20.8469 13.9665 20.7316 13.9966 20.6174C14.0267 20.5033 14.0625 20.3908 14.1049 20.2808C14.147 20.1703 14.1956 20.0628 14.2496 19.9581C14.304 19.8531 14.3637 19.7517 14.4288 19.6532C14.4943 19.5552 14.5652 19.4608 14.641 19.3701C14.7168 19.2799 14.7976 19.1938 14.8829 19.1122C14.9682 19.0306 15.0576 18.9544 15.1516 18.8827C15.2455 18.811 15.3428 18.7446 15.4441 18.6841C15.5451 18.6231 15.6493 18.5679 15.7569 18.5184C15.864 18.4694 15.9736 18.4261 16.0857 18.389C16.1978 18.3516 16.3115 18.3206 16.4269 18.2963C16.5422 18.2716 16.6588 18.2535 16.7763 18.2415C16.8937 18.23 17.0116 18.2246 17.1294 18.2259C17.2477 18.2271 17.3651 18.2349 17.4825 18.2494C17.5996 18.2638 17.7158 18.2844 17.8303 18.3116C17.9453 18.3384 18.0586 18.3717 18.1698 18.4117C18.2807 18.4513 18.3895 18.497 18.4958 18.5485C18.6017 18.6 18.7047 18.6573 18.8048 18.7203C18.9045 18.7834 19.0005 18.8518 19.0928 18.9255C19.1851 18.9993 19.2729 19.0776 19.3565 19.1612C19.4402 19.2445 19.5189 19.3322 19.5927 19.4241C19.6664 19.5164 19.7352 19.612 19.7983 19.7117C19.8617 19.8115 19.919 19.9145 19.9709 20.0204C20.0228 20.1267 20.069 20.235 20.109 20.3463C20.1485 20.4571 20.1823 20.57 20.2095 20.685C20.2371 20.8 20.2581 20.9157 20.2725 21.0332C20.2874 21.1502 20.2952 21.2676 20.2968 21.3859C20.2985 21.5037 20.2936 21.6216 20.282 21.739C20.2783 21.7918 20.2697 21.8433 20.2556 21.8944C20.2416 21.9451 20.2231 21.9941 20.1996 22.0411C20.1761 22.0884 20.1481 22.1329 20.116 22.1746C20.0838 22.2162 20.0476 22.2541 20.008 22.2887C19.968 22.3233 19.9252 22.3538 19.8794 22.3798C19.8337 22.4061 19.7859 22.4276 19.736 22.444C19.6862 22.4609 19.6347 22.4725 19.5828 22.4791C19.5304 22.4857 19.4781 22.4873 19.4254 22.4836C19.3726 22.4799 19.3211 22.4712 19.27 22.4572C19.2193 22.4436 19.1703 22.4247 19.1233 22.4012C19.0759 22.3777 19.0314 22.3497 18.9898 22.3175C18.9482 22.2854 18.9103 22.2491 18.8757 22.2096C18.8411 22.1696 18.8106 22.1272 18.7846 22.0814C18.7582 22.0357 18.7368 21.9875 18.7203 21.9376C18.7034 21.8878 18.6919 21.8367 18.6853 21.7844C18.6787 21.732 18.6771 21.6797 18.6808 21.6269V20.282C18.6808 18.3606 14.9447 19.1505 14.9447 21.8832C14.9447 21.9883 14.955 22.0926 14.9752 22.1956C14.9958 22.2986 15.0263 22.3987 15.0667 22.496C15.1066 22.5932 15.1561 22.6855 15.2146 22.7729C15.2727 22.8602 15.339 22.941 15.4136 23.0156C15.4878 23.0897 15.569 23.1561 15.6563 23.2146C15.7437 23.2731 15.836 23.3221 15.9332 23.3625C16.0301 23.4029 16.1302 23.433 16.2336 23.4536C16.3366 23.4742 16.4409 23.4845 16.5459 23.4845C17.1488 23.4845 17.6935 23.5483 18.2271 22.9933C18.3516 23.1083 18.4892 23.2039 18.6396 23.2809C18.7904 23.358 18.9486 23.4132 19.1147 23.447C19.2803 23.4804 19.4476 23.4911 19.6166 23.4791C19.7855 23.4668 19.9495 23.4321 20.1085 23.3749C20.268 23.3176 20.4168 23.2401 20.5544 23.1421C20.6924 23.044 20.8148 22.9294 20.9215 22.798C21.0278 22.6666 21.1148 22.5232 21.1819 22.3678C21.2495 22.2125 21.2944 22.051 21.3175 21.8832C21.3348 21.7469 21.3451 21.6096 21.3492 21.472C21.3529 21.3344 21.3505 21.1972 21.341 21.0596C21.3319 20.9223 21.3159 20.786 21.2932 20.65C21.2705 20.5144 21.2417 20.3801 21.2062 20.247C21.1708 20.1139 21.1288 19.9833 21.0806 19.8543C21.0324 19.7253 20.978 19.5988 20.9178 19.4752C20.8572 19.3516 20.7909 19.2313 20.7188 19.1138C20.6471 18.9968 20.5692 18.8831 20.4864 18.7735C20.4032 18.6635 20.3154 18.558 20.2219 18.457C20.1287 18.3557 20.0307 18.2593 19.9285 18.1674C19.8259 18.0755 19.7192 17.9889 19.6079 17.9078C19.4971 17.8262 19.3825 17.7504 19.2642 17.6799C19.146 17.6094 19.0244 17.5452 18.9 17.4862C18.7756 17.4277 18.6486 17.3754 18.5188 17.3288C18.3895 17.2827 18.2576 17.2427 18.1245 17.2089C17.991 17.1751 17.8563 17.1484 17.7199 17.1278ZM17.6132 21.8832C17.6132 21.9183 17.6099 21.9529 17.6029 21.9875C17.5963 22.0217 17.586 22.0551 17.5728 22.0876C17.5592 22.1198 17.5427 22.1507 17.5233 22.1799C17.504 22.2088 17.4817 22.236 17.457 22.2607C17.4323 22.2854 17.4051 22.3077 17.3762 22.327C17.347 22.3464 17.3161 22.3629 17.2839 22.3765C17.2514 22.3897 17.218 22.4 17.1838 22.4066C17.1492 22.4136 17.1146 22.4169 17.0796 22.4169H16.5459C15.5372 22.4169 16.0119 20.282 17.6132 20.282V21.8832Z" fill="#F3F3F3"/>
<path d="M33.0919 10.2201V31.0357H1.06721V10.2201C1.06721 10.1151 1.07752 10.0108 1.09812 9.90779C1.11872 9.80437 1.14921 9.70424 1.18918 9.60741C1.22956 9.51016 1.27901 9.41786 1.33711 9.33051C1.39562 9.24315 1.46196 9.16198 1.53654 9.08781C1.61071 9.01364 1.69147 8.9473 1.77883 8.88879C1.8666 8.83028 1.95889 8.78083 2.05573 8.74086C2.15297 8.70048 2.2531 8.66999 2.35611 8.6498C2.45954 8.6292 2.56337 8.6189 2.66845 8.6189H31.4906C31.5957 8.6189 31.6996 8.6292 31.803 8.6498C31.906 8.66999 32.0061 8.70048 32.1034 8.74086C32.2002 8.78083 32.2925 8.83028 32.3798 8.88879C32.4676 8.9473 32.5484 9.01364 32.6225 9.08781C32.6971 9.16198 32.7635 9.24315 32.822 9.33051C32.8801 9.41786 32.9295 9.51016 32.9699 9.60741C33.0099 9.70424 33.0404 9.80437 33.061 9.90779C33.0816 10.0108 33.0919 10.1151 33.0919 10.2201Z" fill="#50D9D7"/>
<mask id="mask2_247_135" style="mask-type:luminance" maskUnits="userSpaceOnUse" x="0" y="31" width="35" height="4">
<path d="M0 31.0168H34.1591V34.2382H0V31.0168Z" fill="white"/>
</mask>
<g mask="url(#mask2_247_135)">
<path d="M0.533607 31.0358H33.6255C33.6605 31.0358 33.6951 31.0395 33.7297 31.0461C33.7639 31.0531 33.7973 31.063 33.8299 31.0766C33.862 31.0897 33.8929 31.1062 33.9217 31.126C33.951 31.1454 33.9782 31.1672 34.0029 31.1923C34.0276 31.2171 34.0499 31.2439 34.0693 31.2731C34.0886 31.3024 34.1051 31.3329 34.1187 31.3654C34.1319 31.3975 34.1422 31.4309 34.1488 31.4655C34.1558 31.4997 34.1591 31.5343 34.1591 31.5698V32.637C34.1591 32.7421 34.1488 32.8463 34.1282 32.9493C34.108 33.0528 34.0775 33.1529 34.0371 33.2497C33.9971 33.347 33.9477 33.4393 33.8892 33.5266C33.8307 33.614 33.7643 33.6951 33.6902 33.7693C33.616 33.8435 33.5348 33.9098 33.4475 33.9683C33.3601 34.0268 33.2678 34.0763 33.1706 34.1163C33.0737 34.1566 32.9736 34.1871 32.8702 34.2073C32.7672 34.2279 32.6629 34.2382 32.5579 34.2382H1.60123C1.49616 34.2382 1.39191 34.2279 1.2889 34.2073C1.18547 34.1871 1.08534 34.1566 0.988512 34.1163C0.891268 34.0763 0.798968 34.0268 0.711613 33.9683C0.624258 33.9098 0.543084 33.8435 0.468915 33.7693C0.394746 33.6951 0.327993 33.614 0.269894 33.5266C0.211383 33.4393 0.161936 33.347 0.121967 33.2497C0.0815862 33.1529 0.0510944 33.0528 0.0304918 32.9493C0.0103013 32.8463 0 32.7421 0 32.637V31.5698C0 31.5343 0.00329644 31.4997 0.0103013 31.4655C0.0168941 31.4309 0.0271954 31.3975 0.0403811 31.3654C0.0539787 31.3329 0.0704608 31.3024 0.0898273 31.2731C0.109194 31.2439 0.131444 31.2171 0.156168 31.1923C0.180891 31.1672 0.208086 31.1454 0.237342 31.126C0.266185 31.1062 0.297089 31.0897 0.329229 31.0766C0.361781 31.063 0.395158 31.0531 0.429358 31.0461C0.46397 31.0395 0.498583 31.0358 0.533607 31.0358Z" fill="#00AAA8"/>
</g>
<path d="M32.0242 10.2201V29.9685H2.13484V10.2201C2.13484 10.1851 2.13814 10.1505 2.14514 10.1159C2.15215 10.0817 2.16204 10.0483 2.17564 10.0158C2.18882 9.98361 2.2053 9.95271 2.22467 9.92345C2.24445 9.8942 2.26629 9.86741 2.29101 9.84269C2.31614 9.81797 2.34293 9.79572 2.37218 9.77635C2.40103 9.75698 2.43193 9.7405 2.46448 9.7269C2.49662 9.71372 2.53 9.70342 2.56461 9.69641C2.59881 9.68982 2.63342 9.68652 2.66845 9.68652H31.4906C31.5257 9.68652 31.5603 9.68982 31.5945 9.69641C31.6291 9.70342 31.6625 9.71372 31.6946 9.7269C31.7272 9.7405 31.7577 9.75698 31.7869 9.77635C31.8162 9.79572 31.8429 9.81797 31.8681 9.84269C31.8928 9.86741 31.9146 9.8942 31.9344 9.92345C31.9538 9.95271 31.9703 9.98361 31.9835 10.0158C31.9971 10.0483 32.0069 10.0817 32.0139 10.1159C32.021 10.1505 32.0242 10.1851 32.0242 10.2201Z" fill="white"/>
<path d="M20.8156 32.1033H13.3435C13.2734 32.1033 13.2038 32.0963 13.135 32.0827C13.0666 32.0691 12.9998 32.0489 12.9347 32.0222C12.87 31.9954 12.8086 31.9624 12.7501 31.9233C12.692 31.8845 12.638 31.84 12.5886 31.7906C12.5391 31.7411 12.4946 31.6872 12.4559 31.6287C12.4168 31.5706 12.3838 31.5092 12.357 31.4445C12.3302 31.3794 12.31 31.3126 12.2964 31.2442C12.2829 31.1754 12.2758 31.1058 12.2758 31.0357C12.2758 30.9826 11.8275 31.0357 21.8832 31.0357C21.8832 31.1058 21.8762 31.1754 21.8626 31.2442C21.849 31.3126 21.8289 31.3794 21.8021 31.4445C21.7753 31.5092 21.7423 31.5706 21.7032 31.6287C21.6644 31.6872 21.6199 31.7411 21.5705 31.7906C21.5211 31.84 21.4671 31.8845 21.4086 31.9233C21.3505 31.9624 21.2891 31.9954 21.2244 32.0222C21.1593 32.0489 21.0925 32.0691 21.0241 32.0827C20.9553 32.0963 20.8857 32.1033 20.8156 32.1033Z" fill="#F3F3F3"/>
<path d="M4.8037 8.6189H29.3554V9.68652H4.8037V8.6189Z" fill="#00BEBD"/>
<path d="M29.3554 9.68652V20.3611C29.3554 20.4312 29.3521 20.5008 29.3451 20.5705C29.3385 20.6401 29.3282 20.7089 29.3146 20.7777C29.301 20.8461 29.2837 20.9141 29.2635 20.9809C29.2433 21.0476 29.2198 21.1135 29.193 21.1782C29.1663 21.2425 29.1362 21.306 29.1036 21.3674C29.0707 21.4292 29.0344 21.4889 28.9957 21.547C28.9569 21.6055 28.9153 21.6616 28.8708 21.7155C28.8267 21.7695 28.7797 21.8214 28.7303 21.8709C28.6809 21.9203 28.6289 21.9669 28.575 22.0114C28.521 22.0559 28.4649 22.0975 28.4068 22.1363C28.3483 22.175 28.2886 22.2108 28.2268 22.2438C28.1654 22.2768 28.1023 22.3068 28.0376 22.3336C27.973 22.3604 27.907 22.3839 27.8403 22.4041C27.7735 22.4243 27.7055 22.4412 27.6371 22.4552C27.5683 22.4688 27.4995 22.4791 27.4299 22.4857C27.3602 22.4927 27.2906 22.496 27.2205 22.496H6.93854C6.86849 22.496 6.79885 22.4927 6.72921 22.4857C6.65958 22.4791 6.59076 22.4688 6.52195 22.4552C6.45355 22.4412 6.38556 22.4243 6.31881 22.4041C6.25206 22.3839 6.18613 22.3604 6.12144 22.3336C6.05674 22.3068 5.9937 22.2768 5.93231 22.2438C5.8705 22.2108 5.81034 22.175 5.75224 22.1363C5.69414 22.0975 5.6381 22.0559 5.58412 22.0114C5.53014 21.9669 5.47822 21.9203 5.42878 21.8709C5.37933 21.8214 5.33236 21.7695 5.28827 21.7155C5.24377 21.6616 5.20215 21.6055 5.16342 21.547C5.12468 21.4889 5.08842 21.4292 5.05546 21.3674C5.0225 21.306 4.99283 21.2425 4.96604 21.1782C4.93926 21.1135 4.91577 21.0476 4.89558 20.9809C4.87539 20.9141 4.85809 20.8461 4.84449 20.7777C4.83089 20.7089 4.82059 20.6401 4.814 20.5705C4.80699 20.5008 4.8037 20.4312 4.8037 20.3611V9.68652H29.3554Z" fill="#F3F3F3"/>
<path d="M6.93854 6.48401H27.2205C27.2906 6.48401 27.3602 6.4906 27.4286 6.5042C27.4974 6.51821 27.5642 6.5384 27.6289 6.56518C27.694 6.59197 27.7554 6.62493 27.8135 6.66366C27.872 6.70281 27.926 6.7469 27.9754 6.79634C28.0249 6.8462 28.0694 6.90018 28.1081 6.95828C28.1473 7.01638 28.1798 7.07819 28.2066 7.14288C28.2338 7.20757 28.254 7.27432 28.2676 7.34314C28.2812 7.41195 28.2882 7.48117 28.2882 7.55122V20.3611C28.2882 20.4311 28.2812 20.5004 28.2676 20.5692C28.254 20.638 28.2338 20.7047 28.2066 20.7694C28.1798 20.8341 28.1473 20.8959 28.1081 20.954C28.0694 21.0125 28.0249 21.0661 27.9754 21.116C27.926 21.1654 27.872 21.2095 27.8135 21.2486C27.7554 21.2874 27.694 21.3203 27.6289 21.3471C27.5642 21.3739 27.4974 21.3945 27.4286 21.4081C27.3602 21.4217 27.2906 21.4283 27.2205 21.4287H6.93854C6.86849 21.4283 6.79885 21.4217 6.73045 21.4081C6.66164 21.3945 6.59489 21.3739 6.53019 21.3471C6.46509 21.3203 6.40369 21.2874 6.34559 21.2486C6.28708 21.2095 6.2331 21.1654 6.18366 21.116C6.13421 21.0661 6.08971 21.0125 6.05098 20.954C6.01183 20.8959 5.97928 20.8341 5.9525 20.7694C5.9253 20.7047 5.90511 20.638 5.89151 20.5692C5.87792 20.5004 5.87091 20.4311 5.87091 20.3611V7.55122C5.87091 7.48117 5.87792 7.41195 5.89151 7.34314C5.90511 7.27432 5.9253 7.20757 5.9525 7.14288C5.97928 7.07819 6.01183 7.01638 6.05098 6.95828C6.08971 6.90018 6.13421 6.8462 6.18366 6.79634C6.2331 6.7469 6.28708 6.70281 6.34559 6.66366C6.40369 6.62493 6.46509 6.59197 6.53019 6.56518C6.59489 6.5384 6.66164 6.51821 6.73045 6.5042C6.79885 6.4906 6.86849 6.48401 6.93854 6.48401Z" fill="#50D9D7"/>
<path d="M28.2882 7.55122L17.0795 14.4898L5.87091 7.55122C5.87091 7.48117 5.87792 7.41195 5.89151 7.34314C5.90511 7.27432 5.9253 7.20757 5.9525 7.14288C5.97928 7.07819 6.01183 7.01638 6.05098 6.95828C6.08971 6.90018 6.13421 6.8462 6.18366 6.79634C6.2331 6.7469 6.28708 6.70281 6.34559 6.66366C6.40369 6.62493 6.46509 6.59197 6.53019 6.56518C6.59489 6.5384 6.66164 6.51821 6.73045 6.5042C6.79885 6.4906 6.86849 6.48401 6.93854 6.48401H27.2205C27.2906 6.48401 27.3602 6.4906 27.4286 6.5042C27.4974 6.51821 27.5642 6.5384 27.6289 6.56518C27.694 6.59197 27.7554 6.62493 27.8135 6.66366C27.872 6.70281 27.926 6.7469 27.9754 6.79634C28.0249 6.8462 28.0694 6.90018 28.1081 6.95828C28.1473 7.01638 28.1798 7.07819 28.2066 7.14288C28.2338 7.20757 28.254 7.27432 28.2676 7.34314C28.2812 7.41195 28.2882 7.48117 28.2882 7.55122Z" fill="#93E6E5"/>
<path d="M20.015 9.32346C19.5881 9.80885 19.5453 9.68647 14.9447 9.68647C14.8685 9.68689 14.7931 9.67947 14.7189 9.66381C14.6443 9.64857 14.5722 9.62508 14.5026 9.59417C14.4333 9.56327 14.3678 9.52536 14.3064 9.48086C14.245 9.43595 14.189 9.38485 14.1383 9.32799C14.0876 9.27113 14.044 9.20973 14.0065 9.14339C13.969 9.07705 13.9393 9.00741 13.9166 8.93489C13.894 8.86237 13.8795 8.7882 13.873 8.71238C13.8664 8.63657 13.8676 8.56075 13.8771 8.48534L14.1334 6.48401H20.0043C20.282 8.53355 20.4316 8.85372 20.015 9.32346Z" fill="#50D9D7"/>
<mask id="mask3_247_135" style="mask-type:luminance" maskUnits="userSpaceOnUse" x="13" y="0" width="8" height="9">
<path d="M13.2821 0.0791016H20.877V8.6539H13.2821V0.0791016Z" fill="white"/>
</mask>
<g mask="url(#mask3_247_135)">
<path d="M13.3435 4.34878L17.0795 0.0791016L20.8156 4.34878H18.6808L19.2144 8.61887H14.9447L15.4783 4.34878H13.3435Z" fill="#FFAC00"/>
</g>
<path d="M23.4845 21.4287H10.6746C10.6746 21.2186 10.6849 21.0097 10.7055 20.8008C10.7261 20.5919 10.757 20.3846 10.7978 20.179C10.8386 19.9734 10.8897 19.7702 10.9503 19.5691C11.0113 19.3685 11.0821 19.1711 11.1621 18.9774C11.2424 18.7838 11.3322 18.5942 11.4311 18.4092C11.53 18.2242 11.6376 18.0446 11.7542 17.8703C11.8708 17.696 11.9956 17.5274 12.1283 17.3655C12.2614 17.2031 12.4023 17.0478 12.5507 16.8995C12.699 16.7511 12.8544 16.6106 13.0163 16.4775C13.1786 16.3444 13.3468 16.2196 13.5211 16.103C13.6958 15.9864 13.8754 15.8788 14.0604 15.7799C14.2454 15.681 14.4346 15.5916 14.6287 15.5113C14.8223 15.4309 15.0197 15.3604 15.2204 15.2995C15.421 15.2385 15.6242 15.1878 15.8302 15.1466C16.0358 15.1058 16.2431 15.0749 16.4516 15.0547C16.6605 15.0341 16.8698 15.0238 17.0795 15.0238C17.2893 15.0238 17.4986 15.0341 17.7075 15.0547C17.916 15.0749 18.1233 15.1058 18.3289 15.1466C18.5349 15.1878 18.738 15.2385 18.9387 15.2995C19.1394 15.3604 19.3368 15.4309 19.5304 15.5113C19.7245 15.5916 19.9136 15.681 20.0986 15.7799C20.2837 15.8788 20.4633 15.9864 20.638 16.103C20.8123 16.2196 20.9804 16.3444 21.1428 16.4775C21.3047 16.6106 21.4601 16.7511 21.6084 16.8995C21.7567 17.0478 21.8977 17.2031 22.0308 17.3655C22.1634 17.5274 22.2883 17.696 22.4049 17.8703C22.5215 18.0446 22.629 18.2242 22.7279 18.4092C22.8268 18.5942 22.9167 18.7838 22.997 18.9774C23.0769 19.1711 23.1478 19.3685 23.2084 19.5691C23.2694 19.7702 23.3205 19.9734 23.3613 20.179C23.4021 20.3846 23.433 20.5919 23.4536 20.8008C23.4742 21.0097 23.4845 21.2186 23.4845 21.4287Z" fill="#00BEBD"/>
<path d="M22.4168 21.4287C22.4168 21.6034 22.4082 21.7777 22.3913 21.9516C22.374 22.1255 22.3484 22.2981 22.3142 22.47C22.2805 22.6414 22.238 22.8107 22.1869 22.978C22.1362 23.1453 22.0777 23.3097 22.0106 23.4708C21.9438 23.6324 21.8692 23.7902 21.7868 23.9447C21.7044 24.0988 21.6146 24.2484 21.5173 24.3938C21.4201 24.5393 21.3163 24.6794 21.2054 24.8145C21.0946 24.9497 20.9771 25.0791 20.8535 25.2027C20.7299 25.3263 20.6005 25.4433 20.4654 25.5542C20.3302 25.6654 20.1901 25.7693 20.0447 25.8665C19.8996 25.9633 19.7496 26.0532 19.5955 26.1356C19.4414 26.218 19.2836 26.2926 19.1221 26.3597C18.9606 26.4265 18.7961 26.4854 18.6289 26.5361C18.4616 26.5868 18.2922 26.6292 18.1208 26.6634C17.9494 26.6976 17.7767 26.7232 17.6028 26.7401C17.4285 26.7574 17.2542 26.766 17.0795 26.766C16.9048 26.766 16.7305 26.7574 16.5562 26.7401C16.3823 26.7232 16.2097 26.6976 16.0383 26.6634C15.8669 26.6292 15.6975 26.5868 15.5302 26.5361C15.3629 26.4854 15.1985 26.4265 15.037 26.3597C14.8755 26.2926 14.7177 26.218 14.5636 26.1356C14.4094 26.0532 14.2595 25.9633 14.1144 25.8665C13.969 25.7693 13.8289 25.6654 13.6937 25.5542C13.5586 25.4433 13.4292 25.3263 13.3056 25.2027C13.1819 25.0791 13.0645 24.9497 12.9537 24.8145C12.8428 24.6794 12.739 24.5393 12.6417 24.3938C12.5445 24.2484 12.4547 24.0988 12.3723 23.9447C12.2899 23.7902 12.2153 23.6324 12.1485 23.4708C12.0814 23.3097 12.0228 23.1453 11.9722 22.978C11.9211 22.8107 11.8786 22.6414 11.8448 22.47C11.8106 22.2981 11.7851 22.1255 11.7678 21.9516C11.7509 21.7777 11.7422 21.6034 11.7422 21.4287C11.7422 21.2536 11.7509 21.0793 11.7678 20.9054C11.7851 20.7315 11.8106 20.5589 11.8448 20.3871C11.8786 20.2156 11.9211 20.0463 11.9722 19.879C12.0228 19.7117 12.0814 19.5473 12.1485 19.3862C12.2153 19.2247 12.2899 19.0668 12.3723 18.9123C12.4547 18.7582 12.5445 18.6086 12.6417 18.4632C12.739 18.3177 12.8428 18.1776 12.9537 18.0425C13.0645 17.9073 13.1819 17.7779 13.3056 17.6543C13.4292 17.5307 13.5586 17.4137 13.6937 17.3028C13.8289 17.1916 13.969 17.0878 14.1144 16.9905C14.2595 16.8937 14.4094 16.8039 14.5636 16.7214C14.7177 16.639 14.8755 16.5645 15.037 16.4973C15.1985 16.4305 15.3629 16.3716 15.5302 16.3209C15.6975 16.2702 15.8669 16.2278 16.0383 16.1936C16.2097 16.1594 16.3823 16.1339 16.5562 16.117C16.7305 16.0997 16.9048 16.091 17.0795 16.091C17.2542 16.091 17.4285 16.0997 17.6028 16.117C17.7767 16.1339 17.9494 16.1594 18.1208 16.1936C18.2922 16.2278 18.4616 16.2702 18.6289 16.3209C18.7961 16.3716 18.9606 16.4305 19.1221 16.4973C19.2836 16.5645 19.4414 16.639 19.5955 16.7214C19.7496 16.8039 19.8996 16.8937 20.0447 16.9905C20.1901 17.0878 20.3302 17.1916 20.4654 17.3028C20.6005 17.4137 20.7299 17.5307 20.8535 17.6543C20.9771 17.7779 21.0946 17.9073 21.2054 18.0425C21.3163 18.1776 21.4201 18.3177 21.5173 18.4632C21.6146 18.6086 21.7044 18.7582 21.7868 18.9123C21.8692 19.0668 21.9438 19.2247 22.0106 19.3862C22.0777 19.5473 22.1362 19.7117 22.1869 19.879C22.238 20.0463 22.2805 20.2156 22.3142 20.3871C22.3484 20.5589 22.374 20.7315 22.3913 20.9054C22.4082 21.0793 22.4168 21.2536 22.4168 21.4287Z" fill="#FFAC00"/>
<path d="M17.7199 17.2069C17.6305 17.1928 17.5402 17.1817 17.4496 17.1739C17.3593 17.1657 17.2687 17.1607 17.178 17.1582C17.0874 17.1558 16.9963 17.1566 16.9057 17.1599C16.815 17.1636 16.7244 17.1698 16.6341 17.1793C16.5439 17.1883 16.4541 17.2007 16.3642 17.2155C16.2748 17.2303 16.1858 17.2485 16.0972 17.2691C16.009 17.2897 15.9213 17.3132 15.8343 17.3395C15.7474 17.3655 15.6617 17.3948 15.5764 17.4265C15.4915 17.4582 15.4074 17.4928 15.3246 17.5299C15.2418 17.567 15.1602 17.6065 15.0799 17.649C14.9995 17.691 14.9204 17.7359 14.8429 17.7833C14.7655 17.8307 14.6896 17.8806 14.6155 17.9325C14.5413 17.9848 14.4684 18.0392 14.3979 18.0961C14.327 18.1529 14.2578 18.2119 14.1911 18.2732C14.1239 18.3342 14.0588 18.3977 13.9958 18.4632C13.9327 18.5283 13.8717 18.5959 13.8132 18.6651C13.7543 18.7343 13.6978 18.8052 13.6439 18.8781C13.5895 18.9511 13.538 19.0257 13.4885 19.1015C13.4391 19.1777 13.3921 19.2556 13.3476 19.3347C13.3031 19.4138 13.2611 19.4942 13.2215 19.5762C13.1824 19.6577 13.1457 19.741 13.1115 19.825C13.0777 19.9091 13.0464 19.9944 13.0175 20.0805C12.9891 20.1666 12.9632 20.2536 12.9401 20.3413C12.917 20.4291 12.8968 20.5177 12.8791 20.6067C12.8618 20.6961 12.8474 20.7855 12.8354 20.8758C12.8239 20.9656 12.8148 21.0558 12.809 21.1465C12.8029 21.2371 12.8 21.3278 12.8 21.4184C12.7996 21.5095 12.8025 21.6002 12.8078 21.6908C12.8136 21.7815 12.8222 21.8717 12.8334 21.9619C12.8449 22.0518 12.8589 22.1416 12.8762 22.2306C12.8931 22.32 12.9133 22.4082 12.936 22.4964C12.9586 22.5841 12.9842 22.6711 13.0126 22.7576C13.0501 22.8771 13.0934 22.9949 13.1416 23.1107C13.1898 23.2265 13.2429 23.3398 13.3014 23.4507C13.36 23.5619 13.423 23.6699 13.4914 23.7754C13.5594 23.8809 13.6319 23.983 13.709 24.0815C13.7864 24.1804 13.8676 24.276 13.9533 24.3675C14.039 24.459 14.1288 24.5467 14.2224 24.6304C14.3159 24.7136 14.4128 24.7931 14.5137 24.8681C14.6142 24.9427 14.7177 25.0132 14.8248 25.0787C14.9315 25.1442 15.0411 25.2052 15.1536 25.2608C15.2657 25.3169 15.3807 25.3675 15.4973 25.4133C15.6143 25.4586 15.733 25.499 15.8533 25.534C15.9736 25.569 16.0956 25.5987 16.2188 25.6226C16.3416 25.6469 16.4656 25.6655 16.5904 25.6786C16.7153 25.6914 16.8401 25.6988 16.9658 25.7009C17.0911 25.703 17.2164 25.6988 17.3416 25.6898C17.4665 25.6803 17.5909 25.6655 17.7145 25.6453C17.7495 25.6383 17.7837 25.6284 17.8167 25.6148C17.8497 25.6016 17.8814 25.5851 17.9111 25.5653C17.9407 25.546 17.9683 25.5237 17.9939 25.4986C18.019 25.4734 18.0421 25.4462 18.0619 25.417C18.0821 25.3873 18.099 25.3564 18.113 25.3235C18.127 25.2905 18.1373 25.2567 18.1447 25.2217C18.1517 25.1871 18.1558 25.1516 18.1558 25.1162C18.1562 25.0803 18.1529 25.0449 18.1464 25.0099C18.1398 24.9749 18.1299 24.9411 18.1163 24.9081C18.1031 24.8747 18.0866 24.8434 18.0672 24.8137C18.0475 24.7837 18.0252 24.7561 18.0005 24.7309C17.9754 24.7054 17.9482 24.6827 17.9185 24.6625C17.8892 24.6423 17.8579 24.6254 17.8254 24.6114C17.7924 24.5974 17.7586 24.5867 17.7236 24.5797C17.689 24.5723 17.6535 24.5686 17.6177 24.5682C17.5823 24.5678 17.5468 24.571 17.5118 24.5776C17.4203 24.5921 17.3284 24.6024 17.2361 24.6085C17.1434 24.6151 17.0511 24.6172 16.9584 24.6151C16.8657 24.6135 16.7734 24.6073 16.6815 24.5974C16.5892 24.5875 16.4977 24.5735 16.4071 24.5554C16.316 24.5373 16.2262 24.515 16.1376 24.489C16.0486 24.4627 15.9608 24.433 15.8747 24.3992C15.7886 24.3654 15.7037 24.3279 15.6209 24.2863C15.5381 24.2451 15.4573 24.2002 15.3782 24.152C15.2991 24.1034 15.2224 24.0514 15.1483 23.9962C15.0737 23.941 15.002 23.8829 14.9328 23.8211C14.8635 23.7597 14.7972 23.695 14.7337 23.6279C14.6703 23.5603 14.6097 23.4902 14.5524 23.4173C14.4952 23.3448 14.4412 23.2694 14.3905 23.1919C14.3398 23.1144 14.2928 23.0349 14.2492 22.9529C14.2055 22.8713 14.1655 22.7881 14.1293 22.7028C14.093 22.6175 14.0604 22.5306 14.032 22.4428C13.9974 22.3299 13.9694 22.2153 13.9475 22.0991C13.9257 21.9834 13.9105 21.8663 13.9014 21.7485C13.8923 21.6311 13.8903 21.5132 13.8944 21.395C13.8985 21.2771 13.9088 21.1597 13.9261 21.0431C13.943 20.926 13.9665 20.8107 13.9966 20.6965C14.0267 20.5824 14.0625 20.4699 14.1049 20.3599C14.147 20.2494 14.1956 20.1419 14.2496 20.0372C14.304 19.9322 14.3637 19.8308 14.4288 19.7323C14.4943 19.6343 14.5652 19.5399 14.641 19.4492C14.7168 19.359 14.7976 19.2729 14.8829 19.1913C14.9682 19.1097 15.0576 19.0335 15.1516 18.9618C15.2455 18.8901 15.3428 18.8237 15.4441 18.7628C15.5451 18.7022 15.6493 18.647 15.7569 18.5975C15.864 18.5485 15.9736 18.5052 16.0857 18.4677C16.1978 18.4307 16.3115 18.3997 16.4269 18.375C16.5422 18.3507 16.6588 18.3326 16.7763 18.3206C16.8937 18.3091 17.0116 18.3037 17.1294 18.305C17.2477 18.3062 17.3651 18.314 17.4825 18.3285C17.5996 18.3425 17.7158 18.3635 17.8303 18.3907C17.9453 18.4175 18.0586 18.4508 18.1698 18.4908C18.2807 18.5304 18.3895 18.5757 18.4958 18.6276C18.6017 18.6791 18.7047 18.7364 18.8048 18.7994C18.9045 18.8625 19.0005 18.9309 19.0928 19.0046C19.1851 19.0784 19.2729 19.1567 19.3565 19.2403C19.4402 19.3236 19.5189 19.4113 19.5927 19.5032C19.6664 19.5955 19.7352 19.6911 19.7983 19.7908C19.8617 19.8906 19.919 19.9936 19.9709 20.0995C20.0228 20.2054 20.069 20.3141 20.109 20.4254C20.1485 20.5362 20.1823 20.6491 20.2095 20.7641C20.2371 20.8791 20.2581 20.9949 20.2725 21.1119C20.2874 21.2293 20.2952 21.3467 20.2968 21.465C20.2985 21.5828 20.2936 21.7007 20.282 21.8181C20.2783 21.8709 20.2697 21.9224 20.2556 21.9735C20.2416 22.0242 20.2231 22.0732 20.1996 22.1202C20.1761 22.1675 20.1481 22.2121 20.116 22.2537C20.0838 22.2953 20.0476 22.3332 20.008 22.3678C19.968 22.4024 19.9252 22.4329 19.8794 22.4589C19.8337 22.4852 19.7859 22.5067 19.736 22.5231C19.6862 22.54 19.6347 22.5516 19.5828 22.5582C19.5304 22.5648 19.4781 22.5664 19.4254 22.5627C19.3726 22.559 19.3211 22.5503 19.27 22.5363C19.2193 22.5227 19.1703 22.5038 19.1233 22.4803C19.0759 22.4568 19.0314 22.4288 18.9898 22.3967C18.9482 22.3645 18.9103 22.3282 18.8757 22.2887C18.8411 22.2487 18.8106 22.2059 18.7846 22.1601C18.7582 22.1144 18.7368 22.0666 18.7203 22.0167C18.7034 21.9669 18.6919 21.9158 18.6853 21.8635C18.6787 21.8111 18.6771 21.7588 18.6808 21.7061V20.3611C18.6808 18.4397 14.9447 19.2296 14.9447 21.9623C14.9447 22.0674 14.955 22.1717 14.9752 22.2747C14.9958 22.3777 15.0263 22.4778 15.0667 22.5751C15.1066 22.6723 15.1561 22.7646 15.2146 22.852C15.2727 22.9393 15.339 23.0201 15.4136 23.0947C15.4878 23.1688 15.569 23.2352 15.6563 23.2937C15.7437 23.3522 15.836 23.4012 15.9332 23.4416C16.0301 23.482 16.1302 23.5121 16.2336 23.5327C16.3366 23.5533 16.4409 23.5636 16.5459 23.5636C17.1488 23.5636 17.6935 23.6274 18.2271 23.0724C18.3516 23.187 18.4892 23.283 18.6396 23.36C18.7904 23.4371 18.9486 23.4923 19.1147 23.5261C19.2803 23.5595 19.4476 23.5702 19.6166 23.5578C19.7855 23.5459 19.9495 23.5108 20.1085 23.454C20.268 23.3967 20.4168 23.3188 20.5544 23.2212C20.6924 23.1231 20.8148 23.0085 20.9215 22.8767C21.0278 22.7452 21.1148 22.6019 21.1819 22.4469C21.2495 22.2916 21.2944 22.1301 21.3175 21.9623C21.3348 21.8255 21.3451 21.6887 21.3492 21.5511C21.3529 21.4135 21.3505 21.2763 21.341 21.1387C21.3319 21.0014 21.3159 20.8651 21.2932 20.7291C21.2705 20.5935 21.2417 20.4592 21.2062 20.3261C21.1708 20.193 21.1288 20.0624 21.0806 19.9334C21.0324 19.8044 20.978 19.6779 20.9178 19.5543C20.8572 19.4307 20.7909 19.3104 20.7188 19.1929C20.6471 19.0759 20.5692 18.9622 20.4864 18.8526C20.4032 18.7426 20.3154 18.6371 20.2219 18.5361C20.1287 18.4348 20.0307 18.3384 19.9285 18.2465C19.8259 18.1546 19.7192 18.068 19.6079 17.9865C19.4971 17.9053 19.3825 17.8295 19.2642 17.759C19.146 17.6885 19.0244 17.6239 18.9 17.5653C18.7756 17.5068 18.6486 17.4545 18.5188 17.4079C18.3895 17.3618 18.2576 17.3218 18.1245 17.288C17.991 17.2542 17.8563 17.2275 17.7199 17.2069ZM17.6132 21.9623C17.6132 21.9974 17.6099 22.032 17.6029 22.0666C17.5963 22.1008 17.586 22.1342 17.5728 22.1667C17.5592 22.1989 17.5427 22.2298 17.5233 22.2586C17.504 22.2879 17.4817 22.3151 17.457 22.3398C17.4323 22.3645 17.4051 22.3868 17.3762 22.4061C17.347 22.4255 17.3161 22.442 17.2839 22.4556C17.2514 22.4688 17.218 22.4791 17.1838 22.4857C17.1492 22.4927 17.1146 22.496 17.0796 22.496H16.5459C15.5372 22.496 16.0119 20.3611 17.6132 20.3611V21.9623Z" fill="#F3F3F3"/>
</svg>
