<svg width="50" height="50" viewBox="0 0 50 50" fill="none" xmlns="http://www.w3.org/2000/svg">
<path d="M45.505 44.6312L50 0H0L0.0587434 0.579167L4.48799 44.6375L4.52559 45.0042L24.8108 50H25.1304L45.4627 45L45.5003 44.6333L45.505 44.6312ZM25.0435 9.74792H39.5719L39.1348 14.2479L24.8014 19.8979L25.0411 20.9146H38.491L36.9425 36.6458L24.9918 39.5833L13.0457 36.65L12.2938 29.1167H17.2118L17.6066 32.9354L17.6442 33.3062L24.8931 35.0146H25.2056L32.3746 33.2479L32.4099 32.8792L33.0866 25.825L33.1407 25.25H11.8826L11.4362 20.7229L26.2606 15.0958L26.0257 14.075H10.7994L10.3647 9.74167H25.027L25.0435 9.74792Z" fill="#00BFFF"/>
</svg>
