<svg width="42" height="41" viewBox="0 0 42 41" fill="none" xmlns="http://www.w3.org/2000/svg">
<path d="M20.912 0.000148326C15.9508 -0.018564 11.1458 1.73379 7.3615 4.94195C3.57717 8.1501 1.06194 12.6034 0.268322 17.5007C-0.525291 22.398 0.454815 27.4178 3.03231 31.6569C5.6098 35.896 9.61546 39.0761 14.3286 40.6251C15.3703 40.7918 15.7036 40.146 15.7036 39.5835V36.0626C9.93279 37.3126 8.70362 33.3335 8.70362 33.3335C8.31455 32.0396 7.47112 30.9298 6.32862 30.2085C4.43279 28.9168 6.47446 28.9585 6.47446 28.9585C7.12842 29.0431 7.75479 29.2744 8.30676 29.6352C8.85873 29.9959 9.322 30.4768 9.66196 31.0418C10.2407 32.0708 11.2022 32.8297 12.3375 33.1535C13.4728 33.4773 14.69 33.3399 15.7245 32.771C15.8194 31.7148 16.2842 30.7262 17.037 29.9793C12.5786 29.521 7.62029 27.7293 7.62029 19.7918C7.56003 17.7115 8.30653 15.6885 9.70362 14.146C9.06933 12.3531 9.14385 10.3857 9.91196 8.64598C9.91196 8.64598 11.662 8.08348 15.6411 10.7293C19.0528 9.81219 22.6461 9.81219 26.0578 10.7293C30.037 8.04181 31.787 8.64598 31.787 8.64598C32.5551 10.3857 32.6296 12.3531 31.9953 14.146C33.3924 15.6885 34.1389 17.7115 34.0786 19.7918C34.0786 27.7501 29.2036 29.5001 24.5578 30.021C25.0581 30.5239 25.4452 31.128 25.6932 31.7927C25.9411 32.4574 26.0441 33.1674 25.9953 33.8751V39.5835C25.9953 40.146 26.3286 40.8126 27.3911 40.6251C32.0957 39.0788 36.0956 35.9073 38.6736 31.6791C41.2517 27.4509 42.2392 22.4426 41.4593 17.5523C40.6793 12.6619 38.1829 8.20933 34.4175 4.99284C30.6521 1.77634 25.8641 0.0063263 20.912 0.000148326Z" fill="#00BFFF"/>
</svg>
