<svg width="50" height="50" viewBox="0 0 50 50" fill="none" xmlns="http://www.w3.org/2000/svg">
<rect x="2.5" y="2.5" width="45" height="45" rx="7.5" stroke="#00BFFF" stroke-width="5"/>
<path d="M45 5H5V45H45V5Z" fill="#00BFFF" fill-opacity="0.01"/>
<path d="M29.4537 30.3972C31.4567 29.9809 33.2743 29.2591 34.6872 28.1994C37.1002 26.3897 38.3333 23.5947 38.3333 20.8333C38.3333 18.8961 37.5989 17.0876 36.3274 15.5557C35.6189 14.7021 37.6912 8.33332 35.85 9.19107C34.0087 10.0488 31.309 11.9474 29.8938 11.5284C28.3787 11.0798 26.7277 10.8333 25 10.8333C23.4993 10.8333 22.0566 11.0193 20.7105 11.3621C18.7538 11.8604 16.8826 9.99999 15 9.19107C13.1174 8.38215 14.1447 14.9694 13.5855 15.6621C12.3676 17.171 11.6667 18.9407 11.6667 20.8333C11.6667 23.5947 13.159 26.3897 15.5719 28.1994C17.1792 29.4048 19.195 30.1731 21.4501 30.5517" stroke="#00BFFF" stroke-width="3" stroke-linecap="round"/>
<path d="M21.4502 30.5517C20.4848 31.6144 20.002 32.6234 20.002 33.5789C20.002 34.5343 20.002 36.9554 20.002 40.8424" stroke="#00BFFF" stroke-width="3" stroke-linecap="round"/>
<path d="M29.4536 30.3973C30.3684 31.5979 30.8258 32.676 30.8258 33.6314C30.8258 34.5869 30.8258 36.9905 30.8258 40.8424" stroke="#00BFFF" stroke-width="3" stroke-linecap="round"/>
<path d="M10 31.0131C10.7491 31.1046 11.3046 31.4491 11.6667 32.0463C12.2097 32.9421 14.2285 36.2651 16.5209 36.2651C18.0492 36.2651 19.2096 36.2651 20.002 36.2651" stroke="#00BFFF" stroke-width="3" stroke-linecap="round"/>
</svg>
