<svg xmlns="http://www.w3.org/2000/svg" xmlns:xlink="http://www.w3.org/1999/xlink" width="633" zoomAndPan="magnify" viewBox="0 0 474.75 474.749981" height="633" preserveAspectRatio="xMidYMid meet" version="1.0"><defs><clipPath id="0f56186328"><path d="M 75.75 77 L 338 77 L 338 399.75 L 75.75 399.75 Z M 75.75 77 " clip-rule="nonzero"/></clipPath><clipPath id="c644d85820"><path d="M 138 75.75 L 399.75 75.75 L 399.75 396 L 138 396 Z M 138 75.75 " clip-rule="nonzero"/></clipPath></defs><path fill="#ffffff" d="M 266.109375 242.644531 L 334.132812 242.644531 L 334.132812 234.035156 L 266.109375 234.035156 L 266.109375 186.941406 L 336.503906 186.941406 L 336.503906 177.824219 L 256.992188 177.824219 L 256.992188 389.183594 C 250.441406 390.050781 243.78125 390.539062 236.992188 390.539062 C 152.328125 390.539062 83.441406 321.652344 83.441406 236.988281 C 83.441406 160.355469 139.875 96.65625 213.367188 85.257812 L 213.367188 76.742188 C 135.203125 88.214844 75 155.695312 75 236.992188 C 75 326.320312 147.667969 398.988281 236.992188 398.988281 C 246.96875 398.988281 256.726562 398.03125 266.210938 396.296875 L 266.210938 387.722656 C 266.175781 387.726562 266.144531 387.734375 266.109375 387.742188 Z M 266.109375 242.644531 " fill-opacity="1" fill-rule="nonzero"/><path fill="#0bb1d3" d="M 236.992188 75 C 231.867188 75 226.808594 75.265625 221.804688 75.734375 L 221.804688 84.195312 C 221.832031 84.195312 221.859375 84.1875 221.882812 84.1875 L 221.882812 234.035156 L 146.601562 234.035156 L 146.601562 177.824219 L 137.484375 177.824219 L 137.484375 295.988281 L 146.601562 295.988281 L 146.601562 242.304688 L 221.882812 242.304688 L 221.882812 295.988281 L 231 295.988281 L 231 83.589844 C 232.988281 83.507812 234.976562 83.433594 236.988281 83.433594 C 321.652344 83.433594 390.539062 152.320312 390.539062 236.988281 C 390.539062 308.667969 341.160156 369.015625 274.644531 385.851562 L 274.644531 394.515625 C 345.859375 377.492188 398.980469 313.34375 398.980469 236.988281 C 398.988281 147.667969 326.3125 75 236.992188 75 Z M 236.992188 75 " fill-opacity="1" fill-rule="nonzero"/><g clip-path="url(#0f56186328)"><path fill="#ffffff" d="M 266.859375 243.394531 L 334.882812 243.394531 L 334.882812 234.785156 L 266.859375 234.785156 L 266.859375 187.691406 L 337.253906 187.691406 L 337.253906 178.574219 L 257.742188 178.574219 L 257.742188 389.933594 C 251.191406 390.800781 244.53125 391.289062 237.742188 391.289062 C 153.078125 391.289062 84.191406 322.402344 84.191406 237.738281 C 84.191406 161.105469 140.625 97.40625 214.117188 86.007812 L 214.117188 77.492188 C 135.953125 88.964844 75.75 156.445312 75.75 237.742188 C 75.75 327.070312 148.417969 399.738281 237.742188 399.738281 C 247.71875 399.738281 257.476562 398.78125 266.960938 397.046875 L 266.960938 388.472656 C 266.925781 388.476562 266.894531 388.484375 266.859375 388.492188 Z M 266.859375 243.394531 " fill-opacity="1" fill-rule="nonzero"/></g><g clip-path="url(#c644d85820)"><path fill="#0bb1d3" d="M 237.742188 75.75 C 232.617188 75.75 227.558594 76.015625 222.554688 76.484375 L 222.554688 84.945312 C 222.582031 84.945312 222.609375 84.9375 222.632812 84.9375 L 222.632812 234.785156 L 147.351562 234.785156 L 147.351562 178.574219 L 138.234375 178.574219 L 138.234375 296.738281 L 147.351562 296.738281 L 147.351562 243.054688 L 222.632812 243.054688 L 222.632812 296.738281 L 231.75 296.738281 L 231.75 84.339844 C 233.738281 84.257812 235.726562 84.183594 237.738281 84.183594 C 322.402344 84.183594 391.289062 153.070312 391.289062 237.738281 C 391.289062 309.417969 341.910156 369.765625 275.394531 386.601562 L 275.394531 395.265625 C 346.609375 378.242188 399.730469 314.09375 399.730469 237.738281 C 399.738281 148.417969 327.0625 75.75 237.742188 75.75 Z M 237.742188 75.75 " fill-opacity="1" fill-rule="nonzero"/></g></svg>