<svg width="42" height="42" viewBox="0 0 42 42" fill="none" xmlns="http://www.w3.org/2000/svg">
<path d="M20.8333 0C24.9538 0 28.9817 1.22185 32.4077 3.51105C35.8337 5.80025 38.504 9.05397 40.0808 12.8608C41.6576 16.6676 42.0702 20.8564 41.2664 24.8977C40.4625 28.939 38.4783 32.6511 35.5647 35.5647C32.6511 38.4783 28.939 40.4625 24.8977 41.2664C20.8564 42.0702 16.6676 41.6576 12.8608 40.0808C9.05397 38.504 5.80025 35.8337 3.51105 32.4077C1.22185 28.9817 0 24.9538 0 20.8333C0 15.308 2.19493 10.0089 6.10194 6.10194C10.0089 2.19493 15.308 0 20.8333 0ZM16.6667 27.7708C16.98 28.7889 16.98 29.8777 16.6667 30.8958C16.6667 31 16.6667 31.1042 16.5417 31.25C16.4167 31.3958 16.5417 31.3958 16.3958 31.5C16.1547 32.0144 15.8309 32.4859 15.4375 32.8958C14.2292 34.2292 12.5 34.7292 11.8125 34.3125C11.125 33.8958 11.4583 31.9792 12.8333 30.5C13.9101 29.4378 15.1475 28.5519 16.5 27.875L16.6667 27.7708ZM33.8958 9.02083C32.9583 5.3125 26.8125 4.10417 21.0208 6.16667C17.3897 7.35481 14.0275 9.24477 11.125 11.7292C7.9375 14.7292 7.41667 17.3333 7.625 18.4167C8.33333 22.25 13.625 24.7708 15.7917 26.625C15.1667 26.9375 10.5 29.2917 9.375 31.7083C8.89928 32.4631 8.7418 33.3756 8.937 34.2462C9.13221 35.1168 9.66421 35.8747 10.4167 36.3542C11.7527 36.6765 13.1562 36.5726 14.4302 36.057C15.7043 35.5414 16.785 34.64 17.5208 33.4792C18.1293 32.5421 18.5102 31.4757 18.6332 30.3652C18.7562 29.2547 18.6178 28.1308 18.2292 27.0833C19.2734 26.8392 20.3527 26.7828 21.4167 26.9167C25.0833 27.3542 25.7917 29.625 25.5833 30.5833C25.5213 30.9237 25.3869 31.2468 25.1892 31.5307C24.9915 31.8147 24.7352 32.0528 24.4375 32.2292C24.1875 32.375 24.1042 32.4375 24.125 32.5625C24.1458 32.6875 24.2708 32.7292 24.4792 32.6875C25.0475 32.5329 25.5536 32.2051 25.927 31.7496C26.3004 31.294 26.5225 30.7335 26.5625 30.1458C26.5625 27.8958 24.4792 25.3958 20.7083 25.4583C19.6072 25.4326 18.5094 25.5874 17.4583 25.9167L17.2917 25.7292C14.9375 23.2292 10.6042 21.5625 10.7917 18.0833C10.7917 16.8542 11.2708 13.6458 19.125 9.75C25.5417 6.54167 30.6875 7.41667 31.625 9.39583C32.8958 12.1667 28.875 17.3542 22.2083 18.1042C21.4784 18.2423 20.727 18.2188 20.0071 18.0352C19.2872 17.8516 18.6163 17.5125 18.0417 17.0417C17.6875 16.6875 17.6458 16.625 17.5208 16.6875C17.3958 16.75 17.5208 17.1667 17.5208 17.375C18.0506 18.2875 18.9068 18.965 19.9167 19.2708C22.5442 19.8379 25.2834 19.5684 27.75 18.5C31.6667 16.9167 34.8333 12.5 33.8958 8.91667V9.02083Z" fill="#00BFFF"/>
</svg>
