<svg width="16" height="16" viewBox="0 0 16 16" fill="none" xmlns="http://www.w3.org/2000/svg">
<path d="M8.1976 0.654718C8.0561 0.710456 7.72566 0.915258 7.51215 1.07988C7.05885 1.42727 6.88346 1.68781 6.7784 2.16871C6.75298 2.28666 6.71655 2.49535 6.70723 2.57313C6.70468 2.59776 6.70045 2.63275 6.69791 2.6509C6.67418 2.83237 6.65046 3.08254 6.63012 3.36382C6.6225 3.45974 6.61318 3.58807 6.60809 3.64899C6.59284 3.84731 6.58352 3.9886 6.56997 4.21285C6.56319 4.3334 6.55387 4.49154 6.54963 4.56283C6.5293 4.89466 6.51235 5.22261 6.49456 5.61925C6.45558 6.48383 6.4505 6.6303 6.43864 7.12287C6.43355 7.36137 6.42762 7.56488 6.42593 7.57525C6.42169 7.59469 6.43186 7.59469 6.1853 7.5584C5.99212 7.52988 5.97094 7.52729 5.85486 7.51173C5.58373 7.47803 5.31599 7.45081 5.10925 7.43396C5.01859 7.42618 4.87709 7.41452 4.79575 7.40804C4.71441 7.40155 4.59579 7.39248 4.5331 7.38859C4.4704 7.38341 4.35601 7.37433 4.27891 7.36785C4.06116 7.34711 2.81057 7.33804 2.57163 7.35489C2.16324 7.3847 1.86585 7.43266 1.63962 7.50525C1.55405 7.53377 1.55743 7.53636 1.56252 7.44952C1.57777 7.20842 1.58963 6.92454 1.60997 6.33217C1.6142 6.20773 1.61929 6.047 1.62183 5.97571C1.63115 5.71517 1.65996 4.51228 1.65996 4.37488C1.65996 4.36451 1.66334 3.95879 1.66673 3.474C1.67012 2.98921 1.67097 2.45258 1.66673 2.28148C1.65911 1.90168 1.6608 1.95094 1.65148 1.8278C1.60658 1.2458 1.54134 0.935999 1.43288 0.780452C1.37612 0.69879 1.33968 0.676753 1.26258 0.676753C1.18463 0.676753 1.13464 0.700086 1.01178 0.790821C0.841479 0.917851 0.683885 1.09025 0.43563 1.42078C0.244144 1.67744 0.20178 1.78243 0.228893 1.93927C0.238213 1.99372 0.272105 2.05205 0.359375 2.17C0.432241 2.26852 0.499177 2.60035 0.525443 2.9944C0.559334 3.49474 0.564418 3.92768 0.550861 4.92577C0.528832 6.54216 0.50765 7.26286 0.46698 7.77746C0.461896 7.83449 0.455965 7.90967 0.453423 7.94597C0.450882 7.98097 0.437325 8.04837 0.422921 8.09503C0.378015 8.2428 0.32972 8.34002 0.194155 8.55649C0.144165 8.63686 0.0890914 8.73537 0.0712984 8.77685C-0.0295284 9.01665 -0.0227501 9.26163 0.0873968 9.32515C0.144165 9.35885 0.210253 9.33941 0.317011 9.26163C0.346666 9.24089 0.375473 9.22275 0.380557 9.22275C0.39835 9.22275 0.392419 9.41848 0.34836 10.3051C0.343277 10.3971 0.335651 10.5462 0.330567 10.6356C0.326331 10.7251 0.3204 10.8327 0.317858 10.8754C0.31108 11.0012 0.296676 11.2773 0.288203 11.4458C0.283967 11.5313 0.276341 11.6687 0.271257 11.7504C0.266174 11.832 0.256854 12.0096 0.250075 12.1457C0.24245 12.2805 0.23313 12.4594 0.228046 12.5411C0.223809 12.6227 0.216184 12.7537 0.211948 12.8327C0.207711 12.9105 0.200086 13.0505 0.195002 13.1438C0.190765 13.2359 0.184834 13.3473 0.182293 13.3901C0.179751 13.4329 0.17382 13.5495 0.169583 13.6493C0.1645 13.7492 0.156874 13.9034 0.15179 13.9928C0.147554 14.0823 0.139928 14.2301 0.134845 14.3234C0.120441 14.6137 0.115357 15.3293 0.127219 15.4628C0.146707 15.687 0.18314 15.8387 0.234824 15.9138C0.326331 16.0474 0.450034 16.0279 0.695747 15.84C1.05161 15.5703 1.36934 15.2087 1.44559 14.9883C1.48033 14.8872 1.46677 14.7602 1.4134 14.6837C1.3346 14.571 1.31765 14.5399 1.29139 14.453C1.24902 14.3117 1.23377 14.1264 1.2397 13.8114C1.24479 13.569 1.26088 13.1036 1.27953 12.7122C1.28376 12.6111 1.29139 12.4477 1.29647 12.3492C1.32782 11.6752 1.33968 11.4367 1.37273 10.856C1.37781 10.7665 1.38374 10.659 1.38544 10.6162C1.39814 10.3816 1.41255 10.121 1.43204 9.80605C1.43712 9.72439 1.44644 9.5494 1.45322 9.41718C1.47271 9.04517 1.47948 8.96998 1.49643 8.91684C1.53202 8.80536 1.61505 8.76648 1.88533 8.73148C2.09631 8.70426 2.46403 8.68741 2.68178 8.69648C2.93935 8.70685 3.29945 8.72629 3.41468 8.73666C3.58922 8.75222 3.77139 8.77037 3.87221 8.78203C3.96965 8.7937 4.05523 8.80148 4.46108 8.83388C4.54072 8.84036 4.64494 8.84814 4.69408 8.85203C4.86099 8.86629 5.14738 8.88703 5.34649 8.89869C5.83029 8.9298 6.29883 8.97646 6.33188 8.99591C6.34628 9.00498 6.34713 9.01794 6.34289 9.1372C6.32171 9.66346 6.31409 12.1017 6.33103 12.8457C6.33696 13.1257 6.3573 13.6182 6.36662 13.753C6.38102 13.9358 6.42254 14.2741 6.44796 14.4012C6.49032 14.6202 6.50557 14.6889 6.53099 14.7835C6.61063 15.0804 6.69706 15.2917 6.81907 15.4861C6.94362 15.6831 7.07749 15.8063 7.23593 15.8672C7.36302 15.9151 7.62399 15.8905 7.8697 15.8063C8.09677 15.7298 8.40772 15.5833 8.56193 15.4835C8.57125 15.477 8.61785 15.4485 8.6653 15.42C9.06776 15.1763 9.48547 14.8237 9.77609 14.4815C9.87691 14.3623 9.93114 14.2612 9.98621 14.0901C10.0498 13.8879 10.0642 13.7505 10.0311 13.6455C10.0057 13.5664 9.97181 13.5366 9.91335 13.5418C9.87437 13.5456 9.8498 13.5612 9.76931 13.6312C9.37193 13.9734 8.92118 14.2171 8.56024 14.2832C8.53566 14.2884 8.51533 14.2897 8.51533 14.2858C8.51533 14.2832 8.53228 14.2378 8.55346 14.1873C8.66699 13.9034 8.73139 13.4808 8.71359 13.1257C8.7102 13.0492 8.70766 12.9831 8.70851 12.9779C8.70936 12.9727 8.70682 12.9312 8.70173 12.8872C8.69665 12.8431 8.69072 12.7925 8.68902 12.7744C8.6636 12.5242 8.60938 12.2702 8.53143 12.0291C8.38993 11.5909 8.17387 11.2967 7.94341 11.2306C7.87648 11.2112 7.73413 11.2228 7.68499 11.2513C7.57739 11.3149 7.51045 11.3745 7.44351 11.4691L7.40115 11.5287L7.39607 11.416C7.38844 11.2474 7.37658 9.14627 7.38336 9.09183L7.38844 9.04517L7.53079 9.03739C7.81293 9.02183 7.98832 8.99591 8.21031 8.93758C8.6348 8.82481 9.01099 8.62389 9.23976 8.38928C9.40328 8.22077 9.47954 8.10281 9.49903 7.98615C9.53207 7.78394 9.39905 7.67247 9.2101 7.74635C9.1474 7.76968 8.84069 7.7969 8.62632 7.7969C8.16625 7.7969 7.47232 7.73209 7.44775 7.68672C7.42826 7.65173 7.44521 6.88177 7.48164 6.13774C7.48588 6.04182 7.49605 5.8435 7.50282 5.69702C7.51638 5.42222 7.5257 5.25371 7.54095 5.02558C7.54519 4.95299 7.55281 4.83633 7.5579 4.76634C7.57908 4.44098 7.5884 4.31655 7.59941 4.17396C7.60789 4.07286 7.61128 4.03527 7.63839 3.72677C7.64941 3.59455 7.66381 3.45585 7.69431 3.18883C7.69939 3.14606 7.70448 3.10458 7.70533 3.0981C7.70702 3.09032 7.71041 3.0618 7.7138 3.03329C7.71719 3.00477 7.72312 2.96329 7.72736 2.94255C7.74345 2.8557 7.77989 2.66775 7.78666 2.63794C7.7909 2.61979 7.81039 2.53554 7.82903 2.44999C7.84852 2.36443 7.8697 2.27629 7.87563 2.25555C7.88241 2.23352 7.89935 2.17259 7.91376 2.11945C7.96121 1.95094 8.03153 1.75003 8.09423 1.60485C8.14252 1.49337 8.18574 1.4169 8.31198 1.22506C8.45941 1.00081 8.47042 0.981366 8.48059 0.917851C8.48906 0.864706 8.48906 0.841374 8.48059 0.797302C8.45178 0.652125 8.34333 0.596388 8.1976 0.654718Z" fill="#00BFFF"/>
<path d="M15.2847 0.0540712C14.8274 0.252177 14.2781 0.406526 13.5537 0.537606C13.4605 0.554395 12.7143 0.628349 11.8337 0.708903C10.0175 0.874568 9.66065 0.920772 9.15578 1.0533C8.84324 1.13513 8.69361 1.20798 8.55624 1.34632C8.27086 1.63445 8.05992 2.12497 7.94377 2.76934C7.88846 3.07618 7.88841 3.07467 7.98866 2.94697C8.02346 2.90177 8.05423 2.86748 8.05538 2.8689C8.05769 2.87173 8.04601 2.94675 8.03046 3.0372C8.01492 3.12766 8.00554 3.20551 8.01015 3.21117C8.01367 3.21693 8.0615 3.16611 8.1154 3.09968C8.47682 2.65412 8.88728 2.37829 9.42223 2.22362C9.56523 2.18154 9.97545 2.11731 9.97615 2.1369C9.97647 2.14594 9.48705 6.60703 9.48001 6.65748C9.47569 6.69109 9.47134 6.69296 9.33498 6.70427C8.89839 6.74046 8.66984 6.88937 8.49307 7.25465C8.39036 7.4687 8.17208 8.09433 8.18572 8.13702C8.19065 8.15173 8.21029 8.14557 8.2707 8.10731C8.31383 8.07955 8.35064 8.05988 8.35294 8.06271C8.35525 8.06554 8.34067 8.12116 8.32202 8.18618C8.30232 8.25279 8.28681 8.31302 8.28702 8.31905C8.28782 8.34165 8.30631 8.33407 8.44456 8.25158C8.62605 8.14435 8.78338 8.07086 8.95993 8.01088C9.13758 7.95082 9.34253 7.91418 9.3435 7.9413C9.34387 7.95185 9.26939 8.65171 9.17794 9.49503C8.65888 14.2714 8.6772 14.1037 8.6507 14.4142C8.61938 14.8067 8.63303 14.9431 8.71683 15.0359C8.73298 15.0557 8.74713 15.0817 8.74761 15.0953C8.74943 15.1465 8.73436 15.2052 8.79162 15.2337C8.99483 15.3347 8.64608 13.9996 9.18878 14.6018C9.32739 14.4981 8.68676 14.7136 8.906 15.1559C8.7376 14.9095 10.0146 14.2149 10.052 13.8083C10.0677 13.6287 10.2214 12.2074 10.3913 10.6518L10.7014 7.82269L11.5314 7.74483C12.4647 7.65688 12.6753 7.62431 12.998 7.51897C13.1354 7.47283 13.2741 7.4054 13.3535 7.3429C13.4973 7.22973 13.6358 7.02783 13.747 6.77378C13.8194 6.60607 13.9646 6.1603 13.9519 6.14472C13.9473 6.13906 13.9125 6.15253 13.8736 6.1754C13.8347 6.19827 13.801 6.21315 13.7987 6.21032C13.7964 6.20749 13.8119 6.14575 13.8325 6.07452C13.8531 6.00179 13.8663 5.93873 13.8628 5.93297C13.8582 5.92731 13.8061 5.95128 13.7466 5.98492C13.5153 6.11744 13.2 6.24635 12.9149 6.32439C12.5784 6.41575 12.4445 6.43441 11.6442 6.50831C11.2133 6.54856 10.8548 6.57828 10.8469 6.5744C10.8346 6.56938 10.8861 6.06184 11.0773 4.29743L11.3245 2.02815L12.6647 1.90798C13.4024 1.84078 14.0213 1.78193 14.0387 1.77595C14.0572 1.76837 14.1129 1.75317 14.1643 1.73985C14.7719 1.58217 15.0753 1.2714 15.4135 0.451443C15.4562 0.349669 15.4904 0.256156 15.49 0.245608C15.4891 0.218484 15.4693 0.220126 15.389 0.257009C15.3531 0.272072 15.3215 0.283756 15.3192 0.280925C15.318 0.278003 15.336 0.223621 15.3613 0.159561C15.4037 0.0502518 15.4142 0.00253745 15.3967 0.00700973C15.3912 0.00897239 15.3412 0.0297416 15.2847 0.0540712Z" fill="#00BFFF"/>
</svg>
